0
SECTION
2
TABLES
0
TABLE
2
LAYER
70
8
0
LAYER
2
PANEL
70
0
62
7
6
CONTINUOUS
0
LAYER
2
SHEET
70
0
62
7
6
CONTINUOUS
0
LAYER
2
LABEL
70
0
62
7
6
CONTINUOUS
0
LAYER
2
WARN
70
0
62
7
6
CONTINUOUS
0
LAYER
2
BORE
70
0
62
7
6
CONTINUOUS
0
LAYER
2
DADO
70
0
62
7
6
CONTINUOUS
0
LAYER
2
RABBET
70
0
62
7
6
CONTINUOUS
0
LAYER
2
CUTOUT
70
0
62
7
6
CONTINUOUS
0
ENDTAB
0
ENDSEC
0
SECTION
2
ENTITIES
0
LINE
8
SHEET
10
0.00
20
0.00
30
0.0
11
2440.00
21
0.00
31
0.0
0
LINE
8
SHEET
10
2440.00
20
0.00
30
0.0
11
2440.00
21
1220.00
31
0.0
0
LINE
8
SHEET
10
2440.00
20
1220.00
30
0.0
11
0.00
21
1220.00
31
0.0
0
LINE
8
SHEET
10
0.00
20
1220.00
30
0.0
11
0.00
21
0.00
31
0.0
0
TEXT
8
SHEET
10
5.00
20
1250.00
30
0.0
40
40.0
1
Sheet 1
0
LINE
8
PANEL
10
0.00
20
0.00
30
0.0
11
654.00
21
0.00
31
0.0
0
LINE
8
PANEL
10
654.00
20
0.00
30
0.0
11
654.00
21
160.00
31
0.0
0
LINE
8
PANEL
10
654.00
20
160.00
30
0.0
11
0.00
21
160.00
31
0.0
0
LINE
8
PANEL
10
0.00
20
160.00
30
0.0
11
0.00
21
0.00
31
0.0
0
TEXT
8
LABEL
10
8.00
20
72.00
30
0.0
40
16.0
1
Front-L-D1 Front-L · Drawer front #1 654x160
0
LINE
8
PANEL
10
657.00
20
0.00
30
0.0
11
1311.00
21
0.00
31
0.0
0
LINE
8
PANEL
10
1311.00
20
0.00
30
0.0
11
1311.00
21
230.00
31
0.0
0
LINE
8
PANEL
10
1311.00
20
230.00
30
0.0
11
657.00
21
230.00
31
0.0
0
LINE
8
PANEL
10
657.00
20
230.00
30
0.0
11
657.00
21
0.00
31
0.0
0
TEXT
8
LABEL
10
665.00
20
107.00
30
0.0
40
16.0
1
Front-L-D2 Front-L · Drawer front #2 654x230
0
LINE
8
PANEL
10
1314.00
20
0.00
30
0.0
11
1968.00
21
0.00
31
0.0
0
LINE
8
PANEL
10
1968.00
20
0.00
30
0.0
11
1968.00
21
300.00
31
0.0
0
LINE
8
PANEL
10
1968.00
20
300.00
30
0.0
11
1314.00
21
300.00
31
0.0
0
LINE
8
PANEL
10
1314.00
20
300.00
30
0.0
11
1314.00
21
0.00
31
0.0
0
TEXT
8
LABEL
10
1322.00
20
142.00
30
0.0
40
16.0
1
Front-L-D3 Front-L · Drawer front #3 654x300
0
LINE
8
PANEL
10
0.00
20
303.00
30
0.0
11
503.00
21
303.00
31
0.0
0
LINE
8
PANEL
10
503.00
20
303.00
30
0.0
11
503.00
21
493.00
31
0.0
0
LINE
8
PANEL
10
503.00
20
493.00
30
0.0
11
0.00
21
493.00
31
0.0
0
LINE
8
PANEL
10
0.00
20
493.00
30
0.0
11
0.00
21
303.00
31
0.0
0
TEXT
8
LABEL
10
8.00
20
390.00
30
0.0
40
16.0
1
Front-M-D1 Front-M · Drawer front #1 503x190
0
LINE
8
PANEL
10
506.00
20
303.00
30
0.0
11
1009.00
21
303.00
31
0.0
0
LINE
8
PANEL
10
1009.00
20
303.00
30
0.0
11
1009.00
21
553.00
31
0.0
0
LINE
8
PANEL
10
1009.00
20
553.00
30
0.0
11
506.00
21
553.00
31
0.0
0
LINE
8
PANEL
10
506.00
20
553.00
30
0.0
11
506.00
21
303.00
31
0.0
0
TEXT
8
LABEL
10
514.00
20
420.00
30
0.0
40
16.0
1
Front-M-D2 Front-M · Drawer front #2 503x250
0
LINE
8
PANEL
10
1012.00
20
303.00
30
0.0
11
1515.00
21
303.00
31
0.0
0
LINE
8
PANEL
10
1515.00
20
303.00
30
0.0
11
1515.00
21
563.00
31
0.0
0
LINE
8
PANEL
10
1515.00
20
563.00
30
0.0
11
1012.00
21
563.00
31
0.0
0
LINE
8
PANEL
10
1012.00
20
563.00
30
0.0
11
1012.00
21
303.00
31
0.0
0
TEXT
8
LABEL
10
1020.00
20
425.00
30
0.0
40
16.0
1
Front-M-D3 Front-M · Drawer front #3 503x260
0
LINE
8
PANEL
10
1518.00
20
303.00
30
0.0
11
2172.00
21
303.00
31
0.0
0
LINE
8
PANEL
10
2172.00
20
303.00
30
0.0
11
2172.00
21
453.00
31
0.0
0
LINE
8
PANEL
10
2172.00
20
453.00
30
0.0
11
1518.00
21
453.00
31
0.0
0
LINE
8
PANEL
10
1518.00
20
453.00
30
0.0
11
1518.00
21
303.00
31
0.0
0
TEXT
8
LABEL
10
1526.00
20
370.00
30
0.0
40
16.0
1
Front-R-D1 Front-R · Drawer front #1 654x150
0
LINE
8
PANEL
10
0.00
20
566.00
30
0.0
11
654.00
21
566.00
31
0.0
0
LINE
8
PANEL
10
654.00
20
566.00
30
0.0
11
654.00
21
786.00
31
0.0
0
LINE
8
PANEL
10
654.00
20
786.00
30
0.0
11
0.00
21
786.00
31
0.0
0
LINE
8
PANEL
10
0.00
20
786.00
30
0.0
11
0.00
21
566.00
31
0.0
0
TEXT
8
LABEL
10
8.00
20
668.00
30
0.0
40
16.0
1
Front-R-D2 Front-R · Drawer front #2 654x220
0
LINE
8
PANEL
10
657.00
20
566.00
30
0.0
11
1311.00
21
566.00
31
0.0
0
LINE
8
PANEL
10
1311.00
20
566.00
30
0.0
11
1311.00
21
886.00
31
0.0
0
LINE
8
PANEL
10
1311.00
20
886.00
30
0.0
11
657.00
21
886.00
31
0.0
0
LINE
8
PANEL
10
657.00
20
886.00
30
0.0
11
657.00
21
566.00
31
0.0
0
TEXT
8
LABEL
10
665.00
20
718.00
30
0.0
40
16.0
1
Front-R-D3 Front-R · Drawer front #3 654x320
0
LINE
8
PANEL
10
1314.00
20
566.00
30
0.0
11
1918.00
21
566.00
31
0.0
0
LINE
8
PANEL
10
1918.00
20
566.00
30
0.0
11
1918.00
21
766.00
31
0.0
0
LINE
8
PANEL
10
1918.00
20
766.00
30
0.0
11
1314.00
21
766.00
31
0.0
0
LINE
8
PANEL
10
1314.00
20
766.00
30
0.0
11
1314.00
21
566.00
31
0.0
0
TEXT
8
LABEL
10
1322.00
20
658.00
30
0.0
40
16.0
1
Back-R-D1 Back-R · Drawer front #1 604x200
0
LINE
8
PANEL
10
0.00
20
889.00
30
0.0
11
604.00
21
889.00
31
0.0
0
LINE
8
PANEL
10
604.00
20
889.00
30
0.0
11
604.00
21
1129.00
31
0.0
0
LINE
8
PANEL
10
604.00
20
1129.00
30
0.0
11
0.00
21
1129.00
31
0.0
0
LINE
8
PANEL
10
0.00
20
1129.00
30
0.0
11
0.00
21
889.00
31
0.0
0
TEXT
8
LABEL
10
8.00
20
1001.00
30
0.0
40
16.0
1
Back-R-D2 Back-R · Drawer front #2 604x240
0
LINE
8
PANEL
10
607.00
20
889.00
30
0.0
11
1211.00
21
889.00
31
0.0
0
LINE
8
PANEL
10
1211.00
20
889.00
30
0.0
11
1211.00
21
1139.00
31
0.0
0
LINE
8
PANEL
10
1211.00
20
1139.00
30
0.0
11
607.00
21
1139.00
31
0.0
0
LINE
8
PANEL
10
607.00
20
1139.00
30
0.0
11
607.00
21
889.00
31
0.0
0
TEXT
8
LABEL
10
615.00
20
1006.00
30
0.0
40
16.0
1
Back-R-D3 Back-R · Drawer front #3 604x250
0
LINE
8
PANEL
10
1214.00
20
889.00
30
0.0
11
1817.00
21
889.00
31
0.0
0
LINE
8
PANEL
10
1817.00
20
889.00
30
0.0
11
1817.00
21
1039.00
31
0.0
0
LINE
8
PANEL
10
1817.00
20
1039.00
30
0.0
11
1214.00
21
1039.00
31
0.0
0
LINE
8
PANEL
10
1214.00
20
1039.00
30
0.0
11
1214.00
21
889.00
31
0.0
0
TEXT
8
LABEL
10
1222.00
20
956.00
30
0.0
40
16.0
1
Back-M-D1 Back-M · Drawer front #1 603x150
0
LINE
8
PANEL
10
1820.00
20
889.00
30
0.0
11
2423.00
21
889.00
31
0.0
0
LINE
8
PANEL
10
2423.00
20
889.00
30
0.0
11
2423.00
21
1099.00
31
0.0
0
LINE
8
PANEL
10
2423.00
20
1099.00
30
0.0
11
1820.00
21
1099.00
31
0.0
0
LINE
8
PANEL
10
1820.00
20
1099.00
30
0.0
11
1820.00
21
889.00
31
0.0
0
TEXT
8
LABEL
10
1828.00
20
986.00
30
0.0
40
16.0
1
Back-M-D2 Back-M · Drawer front #2 603x210
0
LINE
8
SHEET
10
2640.00
20
0.00
30
0.0
11
5080.00
21
0.00
31
0.0
0
LINE
8
SHEET
10
5080.00
20
0.00
30
0.0
11
5080.00
21
1220.00
31
0.0
0
LINE
8
SHEET
10
5080.00
20
1220.00
30
0.0
11
2640.00
21
1220.00
31
0.0
0
LINE
8
SHEET
10
2640.00
20
1220.00
30
0.0
11
2640.00
21
0.00
31
0.0
0
TEXT
8
SHEET
10
2645.00
20
1250.00
30
0.0
40
40.0
1
Sheet 2
0
LINE
8
PANEL
10
2640.00
20
0.00
30
0.0
11
3243.00
21
0.00
31
0.0
0
LINE
8
PANEL
10
3243.00
20
0.00
30
0.0
11
3243.00
21
330.00
31
0.0
0
LINE
8
PANEL
10
3243.00
20
330.00
30
0.0
11
2640.00
21
330.00
31
0.0
0
LINE
8
PANEL
10
2640.00
20
330.00
30
0.0
11
2640.00
21
0.00
31
0.0
0
TEXT
8
LABEL
10
2648.00
20
157.00
30
0.0
40
16.0
1
Back-M-D3 Back-M · Drawer front #3 603x330
0
LINE
8
PANEL
10
3246.00
20
0.00
30
0.0
11
3850.00
21
0.00
31
0.0
0
LINE
8
PANEL
10
3850.00
20
0.00
30
0.0
11
3850.00
21
180.00
31
0.0
0
LINE
8
PANEL
10
3850.00
20
180.00
30
0.0
11
3246.00
21
180.00
31
0.0
0
LINE
8
PANEL
10
3246.00
20
180.00
30
0.0
11
3246.00
21
0.00
31
0.0
0
TEXT
8
LABEL
10
3254.00
20
82.00
30
0.0
40
16.0
1
Back-L-D1 Back-L · Drawer front #1 604x180
0
LINE
8
PANEL
10
3853.00
20
0.00
30
0.0
11
4457.00
21
0.00
31
0.0
0
LINE
8
PANEL
10
4457.00
20
0.00
30
0.0
11
4457.00
21
240.00
31
0.0
0
LINE
8
PANEL
10
4457.00
20
240.00
30
0.0
11
3853.00
21
240.00
31
0.0
0
LINE
8
PANEL
10
3853.00
20
240.00
30
0.0
11
3853.00
21
0.00
31
0.0
0
TEXT
8
LABEL
10
3861.00
20
112.00
30
0.0
40
16.0
1
Back-L-D2 Back-L · Drawer front #2 604x240
0
LINE
8
PANEL
10
4460.00
20
0.00
30
0.0
11
5064.00
21
0.00
31
0.0
0
LINE
8
PANEL
10
5064.00
20
0.00
30
0.0
11
5064.00
21
270.00
31
0.0
0
LINE
8
PANEL
10
5064.00
20
270.00
30
0.0
11
4460.00
21
270.00
31
0.0
0
LINE
8
PANEL
10
4460.00
20
270.00
30
0.0
11
4460.00
21
0.00
31
0.0
0
TEXT
8
LABEL
10
4468.00
20
127.00
30
0.0
40
16.0
1
Back-L-D3 Back-L · Drawer front #3 604x270
0
LINE
8
SHEET
10
5280.00
20
0.00
30
0.0
11
7720.00
21
0.00
31
0.0
0
LINE
8
SHEET
10
7720.00
20
0.00
30
0.0
11
7720.00
21
1220.00
31
0.0
0
LINE
8
SHEET
10
7720.00
20
1220.00
30
0.0
11
5280.00
21
1220.00
31
0.0
0
LINE
8
SHEET
10
5280.00
20
1220.00
30
0.0
11
5280.00
21
0.00
31
0.0
0
TEXT
8
SHEET
10
5285.00
20
1250.00
30
0.0
40
40.0
1
Sheet 3
0
LINE
8
PANEL
10
5280.00
20
0.00
30
0.0
11
7109.00
21
0.00
31
0.0
0
LINE
8
PANEL
10
7109.00
20
0.00
30
0.0
11
7109.00
21
1219.00
31
0.0
0
LINE
8
PANEL
10
7109.00
20
1219.00
30
0.0
11
5280.00
21
1219.00
31
0.0
0
LINE
8
PANEL
10
5280.00
20
1219.00
30
0.0
11
5280.00
21
0.00
31
0.0
0
TEXT
8
LABEL
10
5288.00
20
601.50
30
0.0
40
16.0
1
CT1 Run countertop 1829x1219
0
LINE
8
SHEET
10
7920.00
20
0.00
30
0.0
11
10360.00
21
0.00
31
0.0
0
LINE
8
SHEET
10
10360.00
20
0.00
30
0.0
11
10360.00
21
1220.00
31
0.0
0
LINE
8
SHEET
10
10360.00
20
1220.00
30
0.0
11
7920.00
21
1220.00
31
0.0
0
LINE
8
SHEET
10
7920.00
20
1220.00
30
0.0
11
7920.00
21
0.00
31
0.0
0
TEXT
8
SHEET
10
7925.00
20
1250.00
30
0.0
40
40.0
1
Sheet 4
0
LINE
8
PANEL
10
7920.00
20
0.00
30
0.0
11
8702.00
21
0.00
31
0.0
0
LINE
8
PANEL
10
8702.00
20
0.00
30
0.0
11
8702.00
21
624.00
31
0.0
0
LINE
8
PANEL
10
8702.00
20
624.00
30
0.0
11
7920.00
21
624.00
31
0.0
0
LINE
8
PANEL
10
7920.00
20
624.00
30
0.0
11
7920.00
21
0.00
31
0.0
0
TEXT
8
LABEL
10
7928.00
20
304.00
30
0.0
40
16.0
1
Front-L-B1 Front-L · Back 782x624
0
LINE
8
PANEL
10
8705.00
20
0.00
30
0.0
11
9487.00
21
0.00
31
0.0
0
LINE
8
PANEL
10
9487.00
20
0.00
30
0.0
11
9487.00
21
624.00
31
0.0
0
LINE
8
PANEL
10
9487.00
20
624.00
30
0.0
11
8705.00
21
624.00
31
0.0
0
LINE
8
PANEL
10
8705.00
20
624.00
30
0.0
11
8705.00
21
0.00
31
0.0
0
TEXT
8
LABEL
10
8713.00
20
304.00
30
0.0
40
16.0
1
Front-R-B1 Front-R · Back 782x624
0
LINE
8
PANEL
10
9490.00
20
0.00
30
0.0
11
10290.00
21
0.00
31
0.0
0
LINE
8
PANEL
10
10290.00
20
0.00
30
0.0
11
10290.00
21
600.00
31
0.0
0
LINE
8
PANEL
10
10290.00
20
600.00
30
0.0
11
9490.00
21
600.00
31
0.0
0
LINE
8
PANEL
10
9490.00
20
600.00
30
0.0
11
9490.00
21
0.00
31
0.0
0
TEXT
8
LABEL
10
9498.00
20
292.00
30
0.0
40
16.0
1
Front-L-A1 Front-L · Side 1 800x600
0
CIRCLE
8
BORE
10
10207.00
20
37.00
30
0.0
40
2.00
0
TEXT
8
BORE
10
10210.00
20
33.00
30
0.0
40
7.0
1
⌀4x12
0
CIRCLE
8
BORE
10
10207.00
20
300.00
30
0.0
40
2.00
0
TEXT
8
BORE
10
10210.00
20
296.00
30
0.0
40
7.0
1
⌀4x12
0
CIRCLE
8
BORE
10
10207.00
20
550.00
30
0.0
40
2.00
0
TEXT
8
BORE
10
10210.00
20
546.00
30
0.0
40
7.0
1
⌀4x12
0
CIRCLE
8
BORE
10
10009.00
20
37.00
30
0.0
40
2.00
0
TEXT
8
BORE
10
10012.00
20
33.00
30
0.0
40
7.0
1
⌀4x12
0
CIRCLE
8
BORE
10
10009.00
20
300.00
30
0.0
40
2.00
0
TEXT
8
BORE
10
10012.00
20
296.00
30
0.0
40
7.0
1
⌀4x12
0
CIRCLE
8
BORE
10
10009.00
20
550.00
30
0.0
40
2.00
0
TEXT
8
BORE
10
10012.00
20
546.00
30
0.0
40
7.0
1
⌀4x12
0
CIRCLE
8
BORE
10
9741.00
20
37.00
30
0.0
40
2.00
0
TEXT
8
BORE
10
9744.00
20
33.00
30
0.0
40
7.0
1
⌀4x12
0
CIRCLE
8
BORE
10
9741.00
20
300.00
30
0.0
40
2.00
0
TEXT
8
BORE
10
9744.00
20
296.00
30
0.0
40
7.0
1
⌀4x12
0
CIRCLE
8
BORE
10
9741.00
20
550.00
30
0.0
40
2.00
0
TEXT
8
BORE
10
9744.00
20
546.00
30
0.0
40
7.0
1
⌀4x12
0
LINE
8
DADO
10
9502.00
20
0.00
30
0.0
11
9520.00
21
0.00
31
0.0
0
LINE
8
DADO
10
9520.00
20
0.00
30
0.0
11
9520.00
21
600.00
31
0.0
0
LINE
8
DADO
10
9520.00
20
600.00
30
0.0
11
9502.00
21
600.00
31
0.0
0
LINE
8
DADO
10
9502.00
20
600.00
30
0.0
11
9502.00
21
0.00
31
0.0
0
LINE
8
RABBET
10
9490.00
20
582.00
30
0.0
11
10290.00
21
582.00
31
0.0
0
LINE
8
RABBET
10
10290.00
20
582.00
30
0.0
11
10290.00
21
588.00
31
0.0
0
LINE
8
RABBET
10
10290.00
20
588.00
30
0.0
11
9490.00
21
588.00
31
0.0
0
LINE
8
RABBET
10
9490.00
20
588.00
30
0.0
11
9490.00
21
582.00
31
0.0
0
LINE
8
SHEET
10
10560.00
20
0.00
30
0.0
11
13000.00
21
0.00
31
0.0
0
LINE
8
SHEET
10
13000.00
20
0.00
30
0.0
11
13000.00
21
1220.00
31
0.0
0
LINE
8
SHEET
10
13000.00
20
1220.00
30
0.0
11
10560.00
21
1220.00
31
0.0
0
LINE
8
SHEET
10
10560.00
20
1220.00
30
0.0
11
10560.00
21
0.00
31
0.0
0
TEXT
8
SHEET
10
10565.00
20
1250.00
30
0.0
40
40.0
1
Sheet 5
0
LINE
8
PANEL
10
10560.00
20
0.00
30
0.0
11
11360.00
21
0.00
31
0.0
0
LINE
8
PANEL
10
11360.00
20
0.00
30
0.0
11
11360.00
21
600.00
31
0.0
0
LINE
8
PANEL
10
11360.00
20
600.00
30
0.0
11
10560.00
21
600.00
31
0.0
0
LINE
8
PANEL
10
10560.00
20
600.00
30
0.0
11
10560.00
21
0.00
31
0.0
0
TEXT
8
LABEL
10
10568.00
20
292.00
30
0.0
40
16.0
1
Front-L-A1 Front-L · Side 2 800x600
0
CIRCLE
8
BORE
10
11277.00
20
37.00
30
0.0
40
2.00
0
TEXT
8
BORE
10
11280.00
20
33.00
30
0.0
40
7.0
1
⌀4x12
0
CIRCLE
8
BORE
10
11277.00
20
300.00
30
0.0
40
2.00
0
TEXT
8
BORE
10
11280.00
20
296.00
30
0.0
40
7.0
1
⌀4x12
0
CIRCLE
8
BORE
10
11277.00
20
550.00
30
0.0
40
2.00
0
TEXT
8
BORE
10
11280.00
20
546.00
30
0.0
40
7.0
1
⌀4x12
0
CIRCLE
8
BORE
10
11079.00
20
37.00
30
0.0
40
2.00
0
TEXT
8
BORE
10
11082.00
20
33.00
30
0.0
40
7.0
1
⌀4x12
0
CIRCLE
8
BORE
10
11079.00
20
300.00
30
0.0
40
2.00
0
TEXT
8
BORE
10
11082.00
20
296.00
30
0.0
40
7.0
1
⌀4x12
0
CIRCLE
8
BORE
10
11079.00
20
550.00
30
0.0
40
2.00
0
TEXT
8
BORE
10
11082.00
20
546.00
30
0.0
40
7.0
1
⌀4x12
0
CIRCLE
8
BORE
10
10811.00
20
37.00
30
0.0
40
2.00
0
TEXT
8
BORE
10
10814.00
20
33.00
30
0.0
40
7.0
1
⌀4x12
0
CIRCLE
8
BORE
10
10811.00
20
300.00
30
0.0
40
2.00
0
TEXT
8
BORE
10
10814.00
20
296.00
30
0.0
40
7.0
1
⌀4x12
0
CIRCLE
8
BORE
10
10811.00
20
550.00
30
0.0
40
2.00
0
TEXT
8
BORE
10
10814.00
20
546.00
30
0.0
40
7.0
1
⌀4x12
0
LINE
8
DADO
10
10572.00
20
0.00
30
0.0
11
10590.00
21
0.00
31
0.0
0
LINE
8
DADO
10
10590.00
20
0.00
30
0.0
11
10590.00
21
600.00
31
0.0
0
LINE
8
DADO
10
10590.00
20
600.00
30
0.0
11
10572.00
21
600.00
31
0.0
0
LINE
8
DADO
10
10572.00
20
600.00
30
0.0
11
10572.00
21
0.00
31
0.0
0
LINE
8
RABBET
10
10560.00
20
582.00
30
0.0
11
11360.00
21
582.00
31
0.0
0
LINE
8
RABBET
10
11360.00
20
582.00
30
0.0
11
11360.00
21
588.00
31
0.0
0
LINE
8
RABBET
10
11360.00
20
588.00
30
0.0
11
10560.00
21
588.00
31
0.0
0
LINE
8
RABBET
10
10560.00
20
588.00
30
0.0
11
10560.00
21
582.00
31
0.0
0
LINE
8
PANEL
10
11363.00
20
0.00
30
0.0
11
12163.00
21
0.00
31
0.0
0
LINE
8
PANEL
10
12163.00
20
0.00
30
0.0
11
12163.00
21
600.00
31
0.0
0
LINE
8
PANEL
10
12163.00
20
600.00
30
0.0
11
11363.00
21
600.00
31
0.0
0
LINE
8
PANEL
10
11363.00
20
600.00
30
0.0
11
11363.00
21
0.00
31
0.0
0
TEXT
8
LABEL
10
11371.00
20
292.00
30
0.0
40
16.0
1
Front-M-A1 Front-M · Side 1 800x600
0
CIRCLE
8
BORE
10
12065.00
20
37.00
30
0.0
40
2.00
0
TEXT
8
BORE
10
12068.00
20
33.00
30
0.0
40
7.0
1
⌀4x12
0
CIRCLE
8
BORE
10
12065.00
20
300.00
30
0.0
40
2.00
0
TEXT
8
BORE
10
12068.00
20
296.00
30
0.0
40
7.0
1
⌀4x12
0
CIRCLE
8
BORE
10
12065.00
20
550.00
30
0.0
40
2.00
0
TEXT
8
BORE
10
12068.00
20
546.00
30
0.0
40
7.0
1
⌀4x12
0
CIRCLE
8
BORE
10
11842.00
20
37.00
30
0.0
40
2.00
0
TEXT
8
BORE
10
11845.00
20
33.00
30
0.0
40
7.0
1
⌀4x12
0
CIRCLE
8
BORE
10
11842.00
20
300.00
30
0.0
40
2.00
0
TEXT
8
BORE
10
11845.00
20
296.00
30
0.0
40
7.0
1
⌀4x12
0
CIRCLE
8
BORE
10
11842.00
20
550.00
30
0.0
40
2.00
0
TEXT
8
BORE
10
11845.00
20
546.00
30
0.0
40
7.0
1
⌀4x12
0
CIRCLE
8
BORE
10
11584.00
20
37.00
30
0.0
40
2.00
0
TEXT
8
BORE
10
11587.00
20
33.00
30
0.0
40
7.0
1
⌀4x12
0
CIRCLE
8
BORE
10
11584.00
20
300.00
30
0.0
40
2.00
0
TEXT
8
BORE
10
11587.00
20
296.00
30
0.0
40
7.0
1
⌀4x12
0
CIRCLE
8
BORE
10
11584.00
20
550.00
30
0.0
40
2.00
0
TEXT
8
BORE
10
11587.00
20
546.00
30
0.0
40
7.0
1
⌀4x12
0
LINE
8
DADO
10
11375.00
20
0.00
30
0.0
11
11393.00
21
0.00
31
0.0
0
LINE
8
DADO
10
11393.00
20
0.00
30
0.0
11
11393.00
21
600.00
31
0.0
0
LINE
8
DADO
10
11393.00
20
600.00
30
0.0
11
11375.00
21
600.00
31
0.0
0
LINE
8
DADO
10
11375.00
20
600.00
30
0.0
11
11375.00
21
0.00
31
0.0
0
LINE
8
RABBET
10
11363.00
20
582.00
30
0.0
11
12163.00
21
582.00
31
0.0
0
LINE
8
RABBET
10
12163.00
20
582.00
30
0.0
11
12163.00
21
588.00
31
0.0
0
LINE
8
RABBET
10
12163.00
20
588.00
30
0.0
11
11363.00
21
588.00
31
0.0
0
LINE
8
RABBET
10
11363.00
20
588.00
30
0.0
11
11363.00
21
582.00
31
0.0
0
LINE
8
PANEL
10
12166.00
20
0.00
30
0.0
11
12966.00
21
0.00
31
0.0
0
LINE
8
PANEL
10
12966.00
20
0.00
30
0.0
11
12966.00
21
600.00
31
0.0
0
LINE
8
PANEL
10
12966.00
20
600.00
30
0.0
11
12166.00
21
600.00
31
0.0
0
LINE
8
PANEL
10
12166.00
20
600.00
30
0.0
11
12166.00
21
0.00
31
0.0
0
TEXT
8
LABEL
10
12174.00
20
292.00
30
0.0
40
16.0
1
Front-M-A1 Front-M · Side 2 800x600
0
CIRCLE
8
BORE
10
12868.00
20
37.00
30
0.0
40
2.00
0
TEXT
8
BORE
10
12871.00
20
33.00
30
0.0
40
7.0
1
⌀4x12
0
CIRCLE
8
BORE
10
12868.00
20
300.00
30
0.0
40
2.00
0
TEXT
8
BORE
10
12871.00
20
296.00
30
0.0
40
7.0
1
⌀4x12
0
CIRCLE
8
BORE
10
12868.00
20
550.00
30
0.0
40
2.00
0
TEXT
8
BORE
10
12871.00
20
546.00
30
0.0
40
7.0
1
⌀4x12
0
CIRCLE
8
BORE
10
12645.00
20
37.00
30
0.0
40
2.00
0
TEXT
8
BORE
10
12648.00
20
33.00
30
0.0
40
7.0
1
⌀4x12
0
CIRCLE
8
BORE
10
12645.00
20
300.00
30
0.0
40
2.00
0
TEXT
8
BORE
10
12648.00
20
296.00
30
0.0
40
7.0
1
⌀4x12
0
CIRCLE
8
BORE
10
12645.00
20
550.00
30
0.0
40
2.00
0
TEXT
8
BORE
10
12648.00
20
546.00
30
0.0
40
7.0
1
⌀4x12
0
CIRCLE
8
BORE
10
12387.00
20
37.00
30
0.0
40
2.00
0
TEXT
8
BORE
10
12390.00
20
33.00
30
0.0
40
7.0
1
⌀4x12
0
CIRCLE
8
BORE
10
12387.00
20
300.00
30
0.0
40
2.00
0
TEXT
8
BORE
10
12390.00
20
296.00
30
0.0
40
7.0
1
⌀4x12
0
CIRCLE
8
BORE
10
12387.00
20
550.00
30
0.0
40
2.00
0
TEXT
8
BORE
10
12390.00
20
546.00
30
0.0
40
7.0
1
⌀4x12
0
LINE
8
DADO
10
12178.00
20
0.00
30
0.0
11
12196.00
21
0.00
31
0.0
0
LINE
8
DADO
10
12196.00
20
0.00
30
0.0
11
12196.00
21
600.00
31
0.0
0
LINE
8
DADO
10
12196.00
20
600.00
30
0.0
11
12178.00
21
600.00
31
0.0
0
LINE
8
DADO
10
12178.00
20
600.00
30
0.0
11
12178.00
21
0.00
31
0.0
0
LINE
8
RABBET
10
12166.00
20
582.00
30
0.0
11
12966.00
21
582.00
31
0.0
0
LINE
8
RABBET
10
12966.00
20
582.00
30
0.0
11
12966.00
21
588.00
31
0.0
0
LINE
8
RABBET
10
12966.00
20
588.00
30
0.0
11
12166.00
21
588.00
31
0.0
0
LINE
8
RABBET
10
12166.00
20
588.00
30
0.0
11
12166.00
21
582.00
31
0.0
0
LINE
8
PANEL
10
10560.00
20
603.00
30
0.0
11
11360.00
21
603.00
31
0.0
0
LINE
8
PANEL
10
11360.00
20
603.00
30
0.0
11
11360.00
21
1203.00
31
0.0
0
LINE
8
PANEL
10
11360.00
20
1203.00
30
0.0
11
10560.00
21
1203.00
31
0.0
0
LINE
8
PANEL
10
10560.00
20
1203.00
30
0.0
11
10560.00
21
603.00
31
0.0
0
TEXT
8
LABEL
10
10568.00
20
895.00
30
0.0
40
16.0
1
Front-R-A1 Front-R · Side 1 800x600
0
CIRCLE
8
BORE
10
11282.00
20
640.00
30
0.0
40
2.00
0
TEXT
8
BORE
10
11285.00
20
636.00
30
0.0
40
7.0
1
⌀4x12
0
CIRCLE
8
BORE
10
11282.00
20
903.00
30
0.0
40
2.00
0
TEXT
8
BORE
10
11285.00
20
899.00
30
0.0
40
7.0
1
⌀4x12
0
CIRCLE
8
BORE
10
11282.00
20
1153.00
30
0.0
40
2.00
0
TEXT
8
BORE
10
11285.00
20
1149.00
30
0.0
40
7.0
1
⌀4x12
0
CIRCLE
8
BORE
10
11094.00
20
640.00
30
0.0
40
2.00
0
TEXT
8
BORE
10
11097.00
20
636.00
30
0.0
40
7.0
1
⌀4x12
0
CIRCLE
8
BORE
10
11094.00
20
903.00
30
0.0
40
2.00
0
TEXT
8
BORE
10
11097.00
20
899.00
30
0.0
40
7.0
1
⌀4x12
0
CIRCLE
8
BORE
10
11094.00
20
1153.00
30
0.0
40
2.00
0
TEXT
8
BORE
10
11097.00
20
1149.00
30
0.0
40
7.0
1
⌀4x12
0
CIRCLE
8
BORE
10
10821.00
20
640.00
30
0.0
40
2.00
0
TEXT
8
BORE
10
10824.00
20
636.00
30
0.0
40
7.0
1
⌀4x12
0
CIRCLE
8
BORE
10
10821.00
20
903.00
30
0.0
40
2.00
0
TEXT
8
BORE
10
10824.00
20
899.00
30
0.0
40
7.0
1
⌀4x12
0
CIRCLE
8
BORE
10
10821.00
20
1153.00
30
0.0
40
2.00
0
TEXT
8
BORE
10
10824.00
20
1149.00
30
0.0
40
7.0
1
⌀4x12
0
LINE
8
DADO
10
10572.00
20
603.00
30
0.0
11
10590.00
21
603.00
31
0.0
0
LINE
8
DADO
10
10590.00
20
603.00
30
0.0
11
10590.00
21
1203.00
31
0.0
0
LINE
8
DADO
10
10590.00
20
1203.00
30
0.0
11
10572.00
21
1203.00
31
0.0
0
LINE
8
DADO
10
10572.00
20
1203.00
30
0.0
11
10572.00
21
603.00
31
0.0
0
LINE
8
RABBET
10
10560.00
20
1185.00
30
0.0
11
11360.00
21
1185.00
31
0.0
0
LINE
8
RABBET
10
11360.00
20
1185.00
30
0.0
11
11360.00
21
1191.00
31
0.0
0
LINE
8
RABBET
10
11360.00
20
1191.00
30
0.0
11
10560.00
21
1191.00
31
0.0
0
LINE
8
RABBET
10
10560.00
20
1191.00
30
0.0
11
10560.00
21
1185.00
31
0.0
0
LINE
8
PANEL
10
11363.00
20
603.00
30
0.0
11
12163.00
21
603.00
31
0.0
0
LINE
8
PANEL
10
12163.00
20
603.00
30
0.0
11
12163.00
21
1203.00
31
0.0
0
LINE
8
PANEL
10
12163.00
20
1203.00
30
0.0
11
11363.00
21
1203.00
31
0.0
0
LINE
8
PANEL
10
11363.00
20
1203.00
30
0.0
11
11363.00
21
603.00
31
0.0
0
TEXT
8
LABEL
10
11371.00
20
895.00
30
0.0
40
16.0
1
Front-R-A1 Front-R · Side 2 800x600
0
CIRCLE
8
BORE
10
12085.00
20
640.00
30
0.0
40
2.00
0
TEXT
8
BORE
10
12088.00
20
636.00
30
0.0
40
7.0
1
⌀4x12
0
CIRCLE
8
BORE
10
12085.00
20
903.00
30
0.0
40
2.00
0
TEXT
8
BORE
10
12088.00
20
899.00
30
0.0
40
7.0
1
⌀4x12
0
CIRCLE
8
BORE
10
12085.00
20
1153.00
30
0.0
40
2.00
0
TEXT
8
BORE
10
12088.00
20
1149.00
30
0.0
40
7.0
1
⌀4x12
0
CIRCLE
8
BORE
10
11897.00
20
640.00
30
0.0
40
2.00
0
TEXT
8
BORE
10
11900.00
20
636.00
30
0.0
40
7.0
1
⌀4x12
0
CIRCLE
8
BORE
10
11897.00
20
903.00
30
0.0
40
2.00
0
TEXT
8
BORE
10
11900.00
20
899.00
30
0.0
40
7.0
1
⌀4x12
0
CIRCLE
8
BORE
10
11897.00
20
1153.00
30
0.0
40
2.00
0
TEXT
8
BORE
10
11900.00
20
1149.00
30
0.0
40
7.0
1
⌀4x12
0
CIRCLE
8
BORE
10
11624.00
20
640.00
30
0.0
40
2.00
0
TEXT
8
BORE
10
11627.00
20
636.00
30
0.0
40
7.0
1
⌀4x12
0
CIRCLE
8
BORE
10
11624.00
20
903.00
30
0.0
40
2.00
0
TEXT
8
BORE
10
11627.00
20
899.00
30
0.0
40
7.0
1
⌀4x12
0
CIRCLE
8
BORE
10
11624.00
20
1153.00
30
0.0
40
2.00
0
TEXT
8
BORE
10
11627.00
20
1149.00
30
0.0
40
7.0
1
⌀4x12
0
LINE
8
DADO
10
11375.00
20
603.00
30
0.0
11
11393.00
21
603.00
31
0.0
0
LINE
8
DADO
10
11393.00
20
603.00
30
0.0
11
11393.00
21
1203.00
31
0.0
0
LINE
8
DADO
10
11393.00
20
1203.00
30
0.0
11
11375.00
21
1203.00
31
0.0
0
LINE
8
DADO
10
11375.00
20
1203.00
30
0.0
11
11375.00
21
603.00
31
0.0
0
LINE
8
RABBET
10
11363.00
20
1185.00
30
0.0
11
12163.00
21
1185.00
31
0.0
0
LINE
8
RABBET
10
12163.00
20
1185.00
30
0.0
11
12163.00
21
1191.00
31
0.0
0
LINE
8
RABBET
10
12163.00
20
1191.00
30
0.0
11
11363.00
21
1191.00
31
0.0
0
LINE
8
RABBET
10
11363.00
20
1191.00
30
0.0
11
11363.00
21
1185.00
31
0.0
0
LINE
8
PANEL
10
12166.00
20
603.00
30
0.0
11
12966.00
21
603.00
31
0.0
0
LINE
8
PANEL
10
12966.00
20
603.00
30
0.0
11
12966.00
21
1203.00
31
0.0
0
LINE
8
PANEL
10
12966.00
20
1203.00
30
0.0
11
12166.00
21
1203.00
31
0.0
0
LINE
8
PANEL
10
12166.00
20
1203.00
30
0.0
11
12166.00
21
603.00
31
0.0
0
TEXT
8
LABEL
10
12174.00
20
895.00
30
0.0
40
16.0
1
Back-R-A1 Back-R · Side 1 800x600
0
CIRCLE
8
BORE
10
12863.00
20
640.00
30
0.0
40
2.00
0
TEXT
8
BORE
10
12866.00
20
636.00
30
0.0
40
7.0
1
⌀4x12
0
CIRCLE
8
BORE
10
12863.00
20
903.00
30
0.0
40
2.00
0
TEXT
8
BORE
10
12866.00
20
899.00
30
0.0
40
7.0
1
⌀4x12
0
CIRCLE
8
BORE
10
12863.00
20
1153.00
30
0.0
40
2.00
0
TEXT
8
BORE
10
12866.00
20
1149.00
30
0.0
40
7.0
1
⌀4x12
0
CIRCLE
8
BORE
10
12640.00
20
640.00
30
0.0
40
2.00
0
TEXT
8
BORE
10
12643.00
20
636.00
30
0.0
40
7.0
1
⌀4x12
0
CIRCLE
8
BORE
10
12640.00
20
903.00
30
0.0
40
2.00
0
TEXT
8
BORE
10
12643.00
20
899.00
30
0.0
40
7.0
1
⌀4x12
0
CIRCLE
8
BORE
10
12640.00
20
1153.00
30
0.0
40
2.00
0
TEXT
8
BORE
10
12643.00
20
1149.00
30
0.0
40
7.0
1
⌀4x12
0
CIRCLE
8
BORE
10
12392.00
20
640.00
30
0.0
40
2.00
0
TEXT
8
BORE
10
12395.00
20
636.00
30
0.0
40
7.0
1
⌀4x12
0
CIRCLE
8
BORE
10
12392.00
20
903.00
30
0.0
40
2.00
0
TEXT
8
BORE
10
12395.00
20
899.00
30
0.0
40
7.0
1
⌀4x12
0
CIRCLE
8
BORE
10
12392.00
20
1153.00
30
0.0
40
2.00
0
TEXT
8
BORE
10
12395.00
20
1149.00
30
0.0
40
7.0
1
⌀4x12
0
LINE
8
DADO
10
12178.00
20
603.00
30
0.0
11
12196.00
21
603.00
31
0.0
0
LINE
8
DADO
10
12196.00
20
603.00
30
0.0
11
12196.00
21
1203.00
31
0.0
0
LINE
8
DADO
10
12196.00
20
1203.00
30
0.0
11
12178.00
21
1203.00
31
0.0
0
LINE
8
DADO
10
12178.00
20
1203.00
30
0.0
11
12178.00
21
603.00
31
0.0
0
LINE
8
RABBET
10
12166.00
20
1185.00
30
0.0
11
12966.00
21
1185.00
31
0.0
0
LINE
8
RABBET
10
12966.00
20
1185.00
30
0.0
11
12966.00
21
1191.00
31
0.0
0
LINE
8
RABBET
10
12966.00
20
1191.00
30
0.0
11
12166.00
21
1191.00
31
0.0
0
LINE
8
RABBET
10
12166.00
20
1191.00
30
0.0
11
12166.00
21
1185.00
31
0.0
0
LINE
8
SHEET
10
13200.00
20
0.00
30
0.0
11
15640.00
21
0.00
31
0.0
0
LINE
8
SHEET
10
15640.00
20
0.00
30
0.0
11
15640.00
21
1220.00
31
0.0
0
LINE
8
SHEET
10
15640.00
20
1220.00
30
0.0
11
13200.00
21
1220.00
31
0.0
0
LINE
8
SHEET
10
13200.00
20
1220.00
30
0.0
11
13200.00
21
0.00
31
0.0
0
TEXT
8
SHEET
10
13205.00
20
1250.00
30
0.0
40
40.0
1
Sheet 6
0
LINE
8
PANEL
10
13200.00
20
0.00
30
0.0
11
14000.00
21
0.00
31
0.0
0
LINE
8
PANEL
10
14000.00
20
0.00
30
0.0
11
14000.00
21
600.00
31
0.0
0
LINE
8
PANEL
10
14000.00
20
600.00
30
0.0
11
13200.00
21
600.00
31
0.0
0
LINE
8
PANEL
10
13200.00
20
600.00
30
0.0
11
13200.00
21
0.00
31
0.0
0
TEXT
8
LABEL
10
13208.00
20
292.00
30
0.0
40
16.0
1
Back-R-A1 Back-R · Side 2 800x600
0
CIRCLE
8
BORE
10
13897.00
20
37.00
30
0.0
40
2.00
0
TEXT
8
BORE
10
13900.00
20
33.00
30
0.0
40
7.0
1
⌀4x12
0
CIRCLE
8
BORE
10
13897.00
20
300.00
30
0.0
40
2.00
0
TEXT
8
BORE
10
13900.00
20
296.00
30
0.0
40
7.0
1
⌀4x12
0
CIRCLE
8
BORE
10
13897.00
20
550.00
30
0.0
40
2.00
0
TEXT
8
BORE
10
13900.00
20
546.00
30
0.0
40
7.0
1
⌀4x12
0
CIRCLE
8
BORE
10
13674.00
20
37.00
30
0.0
40
2.00
0
TEXT
8
BORE
10
13677.00
20
33.00
30
0.0
40
7.0
1
⌀4x12
0
CIRCLE
8
BORE
10
13674.00
20
300.00
30
0.0
40
2.00
0
TEXT
8
BORE
10
13677.00
20
296.00
30
0.0
40
7.0
1
⌀4x12
0
CIRCLE
8
BORE
10
13674.00
20
550.00
30
0.0
40
2.00
0
TEXT
8
BORE
10
13677.00
20
546.00
30
0.0
40
7.0
1
⌀4x12
0
CIRCLE
8
BORE
10
13426.00
20
37.00
30
0.0
40
2.00
0
TEXT
8
BORE
10
13429.00
20
33.00
30
0.0
40
7.0
1
⌀4x12
0
CIRCLE
8
BORE
10
13426.00
20
300.00
30
0.0
40
2.00
0
TEXT
8
BORE
10
13429.00
20
296.00
30
0.0
40
7.0
1
⌀4x12
0
CIRCLE
8
BORE
10
13426.00
20
550.00
30
0.0
40
2.00
0
TEXT
8
BORE
10
13429.00
20
546.00
30
0.0
40
7.0
1
⌀4x12
0
LINE
8
DADO
10
13212.00
20
0.00
30
0.0
11
13230.00
21
0.00
31
0.0
0
LINE
8
DADO
10
13230.00
20
0.00
30
0.0
11
13230.00
21
600.00
31
0.0
0
LINE
8
DADO
10
13230.00
20
600.00
30
0.0
11
13212.00
21
600.00
31
0.0
0
LINE
8
DADO
10
13212.00
20
600.00
30
0.0
11
13212.00
21
0.00
31
0.0
0
LINE
8
RABBET
10
13200.00
20
582.00
30
0.0
11
14000.00
21
582.00
31
0.0
0
LINE
8
RABBET
10
14000.00
20
582.00
30
0.0
11
14000.00
21
588.00
31
0.0
0
LINE
8
RABBET
10
14000.00
20
588.00
30
0.0
11
13200.00
21
588.00
31
0.0
0
LINE
8
RABBET
10
13200.00
20
588.00
30
0.0
11
13200.00
21
582.00
31
0.0
0
LINE
8
PANEL
10
14003.00
20
0.00
30
0.0
11
14803.00
21
0.00
31
0.0
0
LINE
8
PANEL
10
14803.00
20
0.00
30
0.0
11
14803.00
21
600.00
31
0.0
0
LINE
8
PANEL
10
14803.00
20
600.00
30
0.0
11
14003.00
21
600.00
31
0.0
0
LINE
8
PANEL
10
14003.00
20
600.00
30
0.0
11
14003.00
21
0.00
31
0.0
0
TEXT
8
LABEL
10
14011.00
20
292.00
30
0.0
40
16.0
1
Back-M-A1 Back-M · Side 1 800x600
0
CIRCLE
8
BORE
10
14725.00
20
37.00
30
0.0
40
2.00
0
TEXT
8
BORE
10
14728.00
20
33.00
30
0.0
40
7.0
1
⌀4x12
0
CIRCLE
8
BORE
10
14725.00
20
300.00
30
0.0
40
2.00
0
TEXT
8
BORE
10
14728.00
20
296.00
30
0.0
40
7.0
1
⌀4x12
0
CIRCLE
8
BORE
10
14725.00
20
550.00
30
0.0
40
2.00
0
TEXT
8
BORE
10
14728.00
20
546.00
30
0.0
40
7.0
1
⌀4x12
0
CIRCLE
8
BORE
10
14542.00
20
37.00
30
0.0
40
2.00
0
TEXT
8
BORE
10
14545.00
20
33.00
30
0.0
40
7.0
1
⌀4x12
0
CIRCLE
8
BORE
10
14542.00
20
300.00
30
0.0
40
2.00
0
TEXT
8
BORE
10
14545.00
20
296.00
30
0.0
40
7.0
1
⌀4x12
0
CIRCLE
8
BORE
10
14542.00
20
550.00
30
0.0
40
2.00
0
TEXT
8
BORE
10
14545.00
20
546.00
30
0.0
40
7.0
1
⌀4x12
0
CIRCLE
8
BORE
10
14269.00
20
37.00
30
0.0
40
2.00
0
TEXT
8
BORE
10
14272.00
20
33.00
30
0.0
40
7.0
1
⌀4x12
0
CIRCLE
8
BORE
10
14269.00
20
300.00
30
0.0
40
2.00
0
TEXT
8
BORE
10
14272.00
20
296.00
30
0.0
40
7.0
1
⌀4x12
0
CIRCLE
8
BORE
10
14269.00
20
550.00
30
0.0
40
2.00
0
TEXT
8
BORE
10
14272.00
20
546.00
30
0.0
40
7.0
1
⌀4x12
0
LINE
8
DADO
10
14015.00
20
0.00
30
0.0
11
14033.00
21
0.00
31
0.0
0
LINE
8
DADO
10
14033.00
20
0.00
30
0.0
11
14033.00
21
600.00
31
0.0
0
LINE
8
DADO
10
14033.00
20
600.00
30
0.0
11
14015.00
21
600.00
31
0.0
0
LINE
8
DADO
10
14015.00
20
600.00
30
0.0
11
14015.00
21
0.00
31
0.0
0
LINE
8
RABBET
10
14003.00
20
582.00
30
0.0
11
14803.00
21
582.00
31
0.0
0
LINE
8
RABBET
10
14803.00
20
582.00
30
0.0
11
14803.00
21
588.00
31
0.0
0
LINE
8
RABBET
10
14803.00
20
588.00
30
0.0
11
14003.00
21
588.00
31
0.0
0
LINE
8
RABBET
10
14003.00
20
588.00
30
0.0
11
14003.00
21
582.00
31
0.0
0
LINE
8
PANEL
10
14806.00
20
0.00
30
0.0
11
15606.00
21
0.00
31
0.0
0
LINE
8
PANEL
10
15606.00
20
0.00
30
0.0
11
15606.00
21
600.00
31
0.0
0
LINE
8
PANEL
10
15606.00
20
600.00
30
0.0
11
14806.00
21
600.00
31
0.0
0
LINE
8
PANEL
10
14806.00
20
600.00
30
0.0
11
14806.00
21
0.00
31
0.0
0
TEXT
8
LABEL
10
14814.00
20
292.00
30
0.0
40
16.0
1
Back-M-A1 Back-M · Side 2 800x600
0
CIRCLE
8
BORE
10
15528.00
20
37.00
30
0.0
40
2.00
0
TEXT
8
BORE
10
15531.00
20
33.00
30
0.0
40
7.0
1
⌀4x12
0
CIRCLE
8
BORE
10
15528.00
20
300.00
30
0.0
40
2.00
0
TEXT
8
BORE
10
15531.00
20
296.00
30
0.0
40
7.0
1
⌀4x12
0
CIRCLE
8
BORE
10
15528.00
20
550.00
30
0.0
40
2.00
0
TEXT
8
BORE
10
15531.00
20
546.00
30
0.0
40
7.0
1
⌀4x12
0
CIRCLE
8
BORE
10
15345.00
20
37.00
30
0.0
40
2.00
0
TEXT
8
BORE
10
15348.00
20
33.00
30
0.0
40
7.0
1
⌀4x12
0
CIRCLE
8
BORE
10
15345.00
20
300.00
30
0.0
40
2.00
0
TEXT
8
BORE
10
15348.00
20
296.00
30
0.0
40
7.0
1
⌀4x12
0
CIRCLE
8
BORE
10
15345.00
20
550.00
30
0.0
40
2.00
0
TEXT
8
BORE
10
15348.00
20
546.00
30
0.0
40
7.0
1
⌀4x12
0
CIRCLE
8
BORE
10
15072.00
20
37.00
30
0.0
40
2.00
0
TEXT
8
BORE
10
15075.00
20
33.00
30
0.0
40
7.0
1
⌀4x12
0
CIRCLE
8
BORE
10
15072.00
20
300.00
30
0.0
40
2.00
0
TEXT
8
BORE
10
15075.00
20
296.00
30
0.0
40
7.0
1
⌀4x12
0
CIRCLE
8
BORE
10
15072.00
20
550.00
30
0.0
40
2.00
0
TEXT
8
BORE
10
15075.00
20
546.00
30
0.0
40
7.0
1
⌀4x12
0
LINE
8
DADO
10
14818.00
20
0.00
30
0.0
11
14836.00
21
0.00
31
0.0
0
LINE
8
DADO
10
14836.00
20
0.00
30
0.0
11
14836.00
21
600.00
31
0.0
0
LINE
8
DADO
10
14836.00
20
600.00
30
0.0
11
14818.00
21
600.00
31
0.0
0
LINE
8
DADO
10
14818.00
20
600.00
30
0.0
11
14818.00
21
0.00
31
0.0
0
LINE
8
RABBET
10
14806.00
20
582.00
30
0.0
11
15606.00
21
582.00
31
0.0
0
LINE
8
RABBET
10
15606.00
20
582.00
30
0.0
11
15606.00
21
588.00
31
0.0
0
LINE
8
RABBET
10
15606.00
20
588.00
30
0.0
11
14806.00
21
588.00
31
0.0
0
LINE
8
RABBET
10
14806.00
20
588.00
30
0.0
11
14806.00
21
582.00
31
0.0
0
LINE
8
PANEL
10
13200.00
20
603.00
30
0.0
11
14000.00
21
603.00
31
0.0
0
LINE
8
PANEL
10
14000.00
20
603.00
30
0.0
11
14000.00
21
1203.00
31
0.0
0
LINE
8
PANEL
10
14000.00
20
1203.00
30
0.0
11
13200.00
21
1203.00
31
0.0
0
LINE
8
PANEL
10
13200.00
20
1203.00
30
0.0
11
13200.00
21
603.00
31
0.0
0
TEXT
8
LABEL
10
13208.00
20
895.00
30
0.0
40
16.0
1
Back-L-A1 Back-L · Side 1 800x600
0
CIRCLE
8
BORE
10
13907.00
20
640.00
30
0.0
40
2.00
0
TEXT
8
BORE
10
13910.00
20
636.00
30
0.0
40
7.0
1
⌀4x12
0
CIRCLE
8
BORE
10
13907.00
20
903.00
30
0.0
40
2.00
0
TEXT
8
BORE
10
13910.00
20
899.00
30
0.0
40
7.0
1
⌀4x12
0
CIRCLE
8
BORE
10
13907.00
20
1153.00
30
0.0
40
2.00
0
TEXT
8
BORE
10
13910.00
20
1149.00
30
0.0
40
7.0
1
⌀4x12
0
CIRCLE
8
BORE
10
13694.00
20
640.00
30
0.0
40
2.00
0
TEXT
8
BORE
10
13697.00
20
636.00
30
0.0
40
7.0
1
⌀4x12
0
CIRCLE
8
BORE
10
13694.00
20
903.00
30
0.0
40
2.00
0
TEXT
8
BORE
10
13697.00
20
899.00
30
0.0
40
7.0
1
⌀4x12
0
CIRCLE
8
BORE
10
13694.00
20
1153.00
30
0.0
40
2.00
0
TEXT
8
BORE
10
13697.00
20
1149.00
30
0.0
40
7.0
1
⌀4x12
0
CIRCLE
8
BORE
10
13436.00
20
640.00
30
0.0
40
2.00
0
TEXT
8
BORE
10
13439.00
20
636.00
30
0.0
40
7.0
1
⌀4x12
0
CIRCLE
8
BORE
10
13436.00
20
903.00
30
0.0
40
2.00
0
TEXT
8
BORE
10
13439.00
20
899.00
30
0.0
40
7.0
1
⌀4x12
0
CIRCLE
8
BORE
10
13436.00
20
1153.00
30
0.0
40
2.00
0
TEXT
8
BORE
10
13439.00
20
1149.00
30
0.0
40
7.0
1
⌀4x12
0
LINE
8
DADO
10
13212.00
20
603.00
30
0.0
11
13230.00
21
603.00
31
0.0
0
LINE
8
DADO
10
13230.00
20
603.00
30
0.0
11
13230.00
21
1203.00
31
0.0
0
LINE
8
DADO
10
13230.00
20
1203.00
30
0.0
11
13212.00
21
1203.00
31
0.0
0
LINE
8
DADO
10
13212.00
20
1203.00
30
0.0
11
13212.00
21
603.00
31
0.0
0
LINE
8
RABBET
10
13200.00
20
1185.00
30
0.0
11
14000.00
21
1185.00
31
0.0
0
LINE
8
RABBET
10
14000.00
20
1185.00
30
0.0
11
14000.00
21
1191.00
31
0.0
0
LINE
8
RABBET
10
14000.00
20
1191.00
30
0.0
11
13200.00
21
1191.00
31
0.0
0
LINE
8
RABBET
10
13200.00
20
1191.00
30
0.0
11
13200.00
21
1185.00
31
0.0
0
LINE
8
PANEL
10
14003.00
20
603.00
30
0.0
11
14803.00
21
603.00
31
0.0
0
LINE
8
PANEL
10
14803.00
20
603.00
30
0.0
11
14803.00
21
1203.00
31
0.0
0
LINE
8
PANEL
10
14803.00
20
1203.00
30
0.0
11
14003.00
21
1203.00
31
0.0
0
LINE
8
PANEL
10
14003.00
20
1203.00
30
0.0
11
14003.00
21
603.00
31
0.0
0
TEXT
8
LABEL
10
14011.00
20
895.00
30
0.0
40
16.0
1
Back-L-A1 Back-L · Side 2 800x600
0
CIRCLE
8
BORE
10
14710.00
20
640.00
30
0.0
40
2.00
0
TEXT
8
BORE
10
14713.00
20
636.00
30
0.0
40
7.0
1
⌀4x12
0
CIRCLE
8
BORE
10
14710.00
20
903.00
30
0.0
40
2.00
0
TEXT
8
BORE
10
14713.00
20
899.00
30
0.0
40
7.0
1
⌀4x12
0
CIRCLE
8
BORE
10
14710.00
20
1153.00
30
0.0
40
2.00
0
TEXT
8
BORE
10
14713.00
20
1149.00
30
0.0
40
7.0
1
⌀4x12
0
CIRCLE
8
BORE
10
14497.00
20
640.00
30
0.0
40
2.00
0
TEXT
8
BORE
10
14500.00
20
636.00
30
0.0
40
7.0
1
⌀4x12
0
CIRCLE
8
BORE
10
14497.00
20
903.00
30
0.0
40
2.00
0
TEXT
8
BORE
10
14500.00
20
899.00
30
0.0
40
7.0
1
⌀4x12
0
CIRCLE
8
BORE
10
14497.00
20
1153.00
30
0.0
40
2.00
0
TEXT
8
BORE
10
14500.00
20
1149.00
30
0.0
40
7.0
1
⌀4x12
0
CIRCLE
8
BORE
10
14239.00
20
640.00
30
0.0
40
2.00
0
TEXT
8
BORE
10
14242.00
20
636.00
30
0.0
40
7.0
1
⌀4x12
0
CIRCLE
8
BORE
10
14239.00
20
903.00
30
0.0
40
2.00
0
TEXT
8
BORE
10
14242.00
20
899.00
30
0.0
40
7.0
1
⌀4x12
0
CIRCLE
8
BORE
10
14239.00
20
1153.00
30
0.0
40
2.00
0
TEXT
8
BORE
10
14242.00
20
1149.00
30
0.0
40
7.0
1
⌀4x12
0
LINE
8
DADO
10
14015.00
20
603.00
30
0.0
11
14033.00
21
603.00
31
0.0
0
LINE
8
DADO
10
14033.00
20
603.00
30
0.0
11
14033.00
21
1203.00
31
0.0
0
LINE
8
DADO
10
14033.00
20
1203.00
30
0.0
11
14015.00
21
1203.00
31
0.0
0
LINE
8
DADO
10
14015.00
20
1203.00
30
0.0
11
14015.00
21
603.00
31
0.0
0
LINE
8
RABBET
10
14003.00
20
1185.00
30
0.0
11
14803.00
21
1185.00
31
0.0
0
LINE
8
RABBET
10
14803.00
20
1185.00
30
0.0
11
14803.00
21
1191.00
31
0.0
0
LINE
8
RABBET
10
14803.00
20
1191.00
30
0.0
11
14003.00
21
1191.00
31
0.0
0
LINE
8
RABBET
10
14003.00
20
1191.00
30
0.0
11
14003.00
21
1185.00
31
0.0
0
LINE
8
PANEL
10
14806.00
20
603.00
30
0.0
11
15430.00
21
603.00
31
0.0
0
LINE
8
PANEL
10
15430.00
20
603.00
30
0.0
11
15430.00
21
1197.00
31
0.0
0
LINE
8
PANEL
10
15430.00
20
1197.00
30
0.0
11
14806.00
21
1197.00
31
0.0
0
LINE
8
PANEL
10
14806.00
20
1197.00
30
0.0
11
14806.00
21
603.00
31
0.0
0
TEXT
8
LABEL
10
14814.00
20
892.00
30
0.0
40
16.0
1
Front-L-A2 Front-L · Bottom 624x594
0
LINE
8
SHEET
10
15840.00
20
0.00
30
0.0
11
18280.00
21
0.00
31
0.0
0
LINE
8
SHEET
10
18280.00
20
0.00
30
0.0
11
18280.00
21
1220.00
31
0.0
0
LINE
8
SHEET
10
18280.00
20
1220.00
30
0.0
11
15840.00
21
1220.00
31
0.0
0
LINE
8
SHEET
10
15840.00
20
1220.00
30
0.0
11
15840.00
21
0.00
31
0.0
0
TEXT
8
SHEET
10
15845.00
20
1250.00
30
0.0
40
40.0
1
Sheet 7
0
LINE
8
PANEL
10
15840.00
20
0.00
30
0.0
11
16464.00
21
0.00
31
0.0
0
LINE
8
PANEL
10
16464.00
20
0.00
30
0.0
11
16464.00
21
594.00
31
0.0
0
LINE
8
PANEL
10
16464.00
20
594.00
30
0.0
11
15840.00
21
594.00
31
0.0
0
LINE
8
PANEL
10
15840.00
20
594.00
30
0.0
11
15840.00
21
0.00
31
0.0
0
TEXT
8
LABEL
10
15848.00
20
289.00
30
0.0
40
16.0
1
Front-R-A2 Front-R · Bottom 624x594
0
LINE
8
PANEL
10
16467.00
20
0.00
30
0.0
11
17061.00
21
0.00
31
0.0
0
LINE
8
PANEL
10
17061.00
20
0.00
30
0.0
11
17061.00
21
574.00
31
0.0
0
LINE
8
PANEL
10
17061.00
20
574.00
30
0.0
11
16467.00
21
574.00
31
0.0
0
LINE
8
PANEL
10
16467.00
20
574.00
30
0.0
11
16467.00
21
0.00
31
0.0
0
TEXT
8
LABEL
10
16475.00
20
279.00
30
0.0
40
16.0
1
Back-R-A2 Back-R · Bottom 594x574
0
LINE
8
PANEL
10
17064.00
20
0.00
30
0.0
11
17846.00
21
0.00
31
0.0
0
LINE
8
PANEL
10
17846.00
20
0.00
30
0.0
11
17846.00
21
574.00
31
0.0
0
LINE
8
PANEL
10
17846.00
20
574.00
30
0.0
11
17064.00
21
574.00
31
0.0
0
LINE
8
PANEL
10
17064.00
20
574.00
30
0.0
11
17064.00
21
0.00
31
0.0
0
TEXT
8
LABEL
10
17072.00
20
279.00
30
0.0
40
16.0
1
Back-R-B1 Back-R · Back 782x574
0
LINE
8
PANEL
10
15840.00
20
597.00
30
0.0
11
16434.00
21
597.00
31
0.0
0
LINE
8
PANEL
10
16434.00
20
597.00
30
0.0
11
16434.00
21
1171.00
31
0.0
0
LINE
8
PANEL
10
16434.00
20
1171.00
30
0.0
11
15840.00
21
1171.00
31
0.0
0
LINE
8
PANEL
10
15840.00
20
1171.00
30
0.0
11
15840.00
21
597.00
31
0.0
0
TEXT
8
LABEL
10
15848.00
20
876.00
30
0.0
40
16.0
1
Back-L-A2 Back-L · Bottom 594x574
0
LINE
8
PANEL
10
16437.00
20
597.00
30
0.0
11
17219.00
21
597.00
31
0.0
0
LINE
8
PANEL
10
17219.00
20
597.00
30
0.0
11
17219.00
21
1171.00
31
0.0
0
LINE
8
PANEL
10
17219.00
20
1171.00
30
0.0
11
16437.00
21
1171.00
31
0.0
0
LINE
8
PANEL
10
16437.00
20
1171.00
30
0.0
11
16437.00
21
597.00
31
0.0
0
TEXT
8
LABEL
10
16445.00
20
876.00
30
0.0
40
16.0
1
Back-L-B1 Back-L · Back 782x574
0
LINE
8
PANEL
10
17222.00
20
597.00
30
0.0
11
17816.00
21
597.00
31
0.0
0
LINE
8
PANEL
10
17816.00
20
597.00
30
0.0
11
17816.00
21
1170.00
31
0.0
0
LINE
8
PANEL
10
17816.00
20
1170.00
30
0.0
11
17222.00
21
1170.00
31
0.0
0
LINE
8
PANEL
10
17222.00
20
1170.00
30
0.0
11
17222.00
21
597.00
31
0.0
0
TEXT
8
LABEL
10
17230.00
20
875.50
30
0.0
40
16.0
1
Back-M-A2 Back-M · Bottom 594x573
0
LINE
8
SHEET
10
18480.00
20
0.00
30
0.0
11
20920.00
21
0.00
31
0.0
0
LINE
8
SHEET
10
20920.00
20
0.00
30
0.0
11
20920.00
21
1220.00
31
0.0
0
LINE
8
SHEET
10
20920.00
20
1220.00
30
0.0
11
18480.00
21
1220.00
31
0.0
0
LINE
8
SHEET
10
18480.00
20
1220.00
30
0.0
11
18480.00
21
0.00
31
0.0
0
TEXT
8
SHEET
10
18485.00
20
1250.00
30
0.0
40
40.0
1
Sheet 8
0
LINE
8
PANEL
10
18480.00
20
0.00
30
0.0
11
19262.00
21
0.00
31
0.0
0
LINE
8
PANEL
10
19262.00
20
0.00
30
0.0
11
19262.00
21
573.00
31
0.0
0
LINE
8
PANEL
10
19262.00
20
573.00
30
0.0
11
18480.00
21
573.00
31
0.0
0
LINE
8
PANEL
10
18480.00
20
573.00
30
0.0
11
18480.00
21
0.00
31
0.0
0
TEXT
8
LABEL
10
18488.00
20
278.50
30
0.0
40
16.0
1
Back-M-B1 Back-M · Back 782x573
0
LINE
8
PANEL
10
19265.00
20
0.00
30
0.0
11
19899.60
21
0.00
31
0.0
0
LINE
8
PANEL
10
19899.60
20
0.00
30
0.0
11
19899.60
21
569.00
31
0.0
0
LINE
8
PANEL
10
19899.60
20
569.00
30
0.0
11
19265.00
21
569.00
31
0.0
0
LINE
8
PANEL
10
19265.00
20
569.00
30
0.0
11
19265.00
21
0.00
31
0.0
0
TEXT
8
LABEL
10
19273.00
20
276.50
30
0.0
40
16.0
1
Front-L-E3 Front-L · Drawer 1 box bottom 635x569
0
LINE
8
PANEL
10
19902.60
20
0.00
30
0.0
11
20537.20
21
0.00
31
0.0
0
LINE
8
PANEL
10
20537.20
20
0.00
30
0.0
11
20537.20
21
569.00
31
0.0
0
LINE
8
PANEL
10
20537.20
20
569.00
30
0.0
11
19902.60
21
569.00
31
0.0
0
LINE
8
PANEL
10
19902.60
20
569.00
30
0.0
11
19902.60
21
0.00
31
0.0
0
TEXT
8
LABEL
10
19910.60
20
276.50
30
0.0
40
16.0
1
Front-L-E6 Front-L · Drawer 2 box bottom 635x569
0
LINE
8
PANEL
10
18480.00
20
576.00
30
0.0
11
19114.60
21
576.00
31
0.0
0
LINE
8
PANEL
10
19114.60
20
576.00
30
0.0
11
19114.60
21
1145.00
31
0.0
0
LINE
8
PANEL
10
19114.60
20
1145.00
30
0.0
11
18480.00
21
1145.00
31
0.0
0
LINE
8
PANEL
10
18480.00
20
1145.00
30
0.0
11
18480.00
21
576.00
31
0.0
0
TEXT
8
LABEL
10
18488.00
20
852.50
30
0.0
40
16.0
1
Front-L-E9 Front-L · Drawer 3 box bottom 635x569
0
LINE
8
PANEL
10
19117.60
20
576.00
30
0.0
11
19752.20
21
576.00
31
0.0
0
LINE
8
PANEL
10
19752.20
20
576.00
30
0.0
11
19752.20
21
1145.00
31
0.0
0
LINE
8
PANEL
10
19752.20
20
1145.00
30
0.0
11
19117.60
21
1145.00
31
0.0
0
LINE
8
PANEL
10
19117.60
20
1145.00
30
0.0
11
19117.60
21
576.00
31
0.0
0
TEXT
8
LABEL
10
19125.60
20
852.50
30
0.0
40
16.0
1
Front-R-E3 Front-R · Drawer 1 box bottom 635x569
0
LINE
8
PANEL
10
19755.20
20
576.00
30
0.0
11
20389.80
21
576.00
31
0.0
0
LINE
8
PANEL
10
20389.80
20
576.00
30
0.0
11
20389.80
21
1145.00
31
0.0
0
LINE
8
PANEL
10
20389.80
20
1145.00
30
0.0
11
19755.20
21
1145.00
31
0.0
0
LINE
8
PANEL
10
19755.20
20
1145.00
30
0.0
11
19755.20
21
576.00
31
0.0
0
TEXT
8
LABEL
10
19763.20
20
852.50
30
0.0
40
16.0
1
Front-R-E6 Front-R · Drawer 2 box bottom 635x569
0
LINE
8
SHEET
10
21120.00
20
0.00
30
0.0
11
23560.00
21
0.00
31
0.0
0
LINE
8
SHEET
10
23560.00
20
0.00
30
0.0
11
23560.00
21
1220.00
31
0.0
0
LINE
8
SHEET
10
23560.00
20
1220.00
30
0.0
11
21120.00
21
1220.00
31
0.0
0
LINE
8
SHEET
10
21120.00
20
1220.00
30
0.0
11
21120.00
21
0.00
31
0.0
0
TEXT
8
SHEET
10
21125.00
20
1250.00
30
0.0
40
40.0
1
Sheet 9
0
LINE
8
PANEL
10
21120.00
20
0.00
30
0.0
11
21754.60
21
0.00
31
0.0
0
LINE
8
PANEL
10
21754.60
20
0.00
30
0.0
11
21754.60
21
569.00
31
0.0
0
LINE
8
PANEL
10
21754.60
20
569.00
30
0.0
11
21120.00
21
569.00
31
0.0
0
LINE
8
PANEL
10
21120.00
20
569.00
30
0.0
11
21120.00
21
0.00
31
0.0
0
TEXT
8
LABEL
10
21128.00
20
276.50
30
0.0
40
16.0
1
Front-R-E9 Front-R · Drawer 3 box bottom 635x569
0
LINE
8
PANEL
10
21757.60
20
0.00
30
0.0
11
22342.20
21
0.00
31
0.0
0
LINE
8
PANEL
10
22342.20
20
0.00
30
0.0
11
22342.20
21
569.00
31
0.0
0
LINE
8
PANEL
10
22342.20
20
569.00
30
0.0
11
21757.60
21
569.00
31
0.0
0
LINE
8
PANEL
10
21757.60
20
569.00
30
0.0
11
21757.60
21
0.00
31
0.0
0
TEXT
8
LABEL
10
21765.60
20
276.50
30
0.0
40
16.0
1
Back-R-E3 Back-R · Drawer 1 box bottom 585x569
0
LINE
8
PANEL
10
22345.20
20
0.00
30
0.0
11
22929.80
21
0.00
31
0.0
0
LINE
8
PANEL
10
22929.80
20
0.00
30
0.0
11
22929.80
21
569.00
31
0.0
0
LINE
8
PANEL
10
22929.80
20
569.00
30
0.0
11
22345.20
21
569.00
31
0.0
0
LINE
8
PANEL
10
22345.20
20
569.00
30
0.0
11
22345.20
21
0.00
31
0.0
0
TEXT
8
LABEL
10
22353.20
20
276.50
30
0.0
40
16.0
1
Back-R-E6 Back-R · Drawer 2 box bottom 585x569
0
LINE
8
PANEL
10
22932.80
20
0.00
30
0.0
11
23517.40
21
0.00
31
0.0
0
LINE
8
PANEL
10
23517.40
20
0.00
30
0.0
11
23517.40
21
569.00
31
0.0
0
LINE
8
PANEL
10
23517.40
20
569.00
30
0.0
11
22932.80
21
569.00
31
0.0
0
LINE
8
PANEL
10
22932.80
20
569.00
30
0.0
11
22932.80
21
0.00
31
0.0
0
TEXT
8
LABEL
10
22940.80
20
276.50
30
0.0
40
16.0
1
Back-R-E9 Back-R · Drawer 3 box bottom 585x569
0
LINE
8
PANEL
10
21120.00
20
572.00
30
0.0
11
21703.60
21
572.00
31
0.0
0
LINE
8
PANEL
10
21703.60
20
572.00
30
0.0
11
21703.60
21
1141.00
31
0.0
0
LINE
8
PANEL
10
21703.60
20
1141.00
30
0.0
11
21120.00
21
1141.00
31
0.0
0
LINE
8
PANEL
10
21120.00
20
1141.00
30
0.0
11
21120.00
21
572.00
31
0.0
0
TEXT
8
LABEL
10
21128.00
20
848.50
30
0.0
40
16.0
1
Back-M-E3 Back-M · Drawer 1 box bottom 584x569
0
LINE
8
PANEL
10
21706.60
20
572.00
30
0.0
11
22290.20
21
572.00
31
0.0
0
LINE
8
PANEL
10
22290.20
20
572.00
30
0.0
11
22290.20
21
1141.00
31
0.0
0
LINE
8
PANEL
10
22290.20
20
1141.00
30
0.0
11
21706.60
21
1141.00
31
0.0
0
LINE
8
PANEL
10
21706.60
20
1141.00
30
0.0
11
21706.60
21
572.00
31
0.0
0
TEXT
8
LABEL
10
21714.60
20
848.50
30
0.0
40
16.0
1
Back-M-E6 Back-M · Drawer 2 box bottom 584x569
0
LINE
8
PANEL
10
22293.20
20
572.00
30
0.0
11
22876.80
21
572.00
31
0.0
0
LINE
8
PANEL
10
22876.80
20
572.00
30
0.0
11
22876.80
21
1141.00
31
0.0
0
LINE
8
PANEL
10
22876.80
20
1141.00
30
0.0
11
22293.20
21
1141.00
31
0.0
0
LINE
8
PANEL
10
22293.20
20
1141.00
30
0.0
11
22293.20
21
572.00
31
0.0
0
TEXT
8
LABEL
10
22301.20
20
848.50
30
0.0
40
16.0
1
Back-M-E9 Back-M · Drawer 3 box bottom 584x569
0
LINE
8
PANEL
10
22879.80
20
572.00
30
0.0
11
23464.40
21
572.00
31
0.0
0
LINE
8
PANEL
10
23464.40
20
572.00
30
0.0
11
23464.40
21
1141.00
31
0.0
0
LINE
8
PANEL
10
23464.40
20
1141.00
30
0.0
11
22879.80
21
1141.00
31
0.0
0
LINE
8
PANEL
10
22879.80
20
1141.00
30
0.0
11
22879.80
21
572.00
31
0.0
0
TEXT
8
LABEL
10
22887.80
20
848.50
30
0.0
40
16.0
1
Back-L-E3 Back-L · Drawer 1 box bottom 585x569
0
LINE
8
SHEET
10
23760.00
20
0.00
30
0.0
11
26200.00
21
0.00
31
0.0
0
LINE
8
SHEET
10
26200.00
20
0.00
30
0.0
11
26200.00
21
1220.00
31
0.0
0
LINE
8
SHEET
10
26200.00
20
1220.00
30
0.0
11
23760.00
21
1220.00
31
0.0
0
LINE
8
SHEET
10
23760.00
20
1220.00
30
0.0
11
23760.00
21
0.00
31
0.0
0
TEXT
8
SHEET
10
23765.00
20
1250.00
30
0.0
40
40.0
1
Sheet 10
0
LINE
8
PANEL
10
23760.00
20
0.00
30
0.0
11
24344.60
21
0.00
31
0.0
0
LINE
8
PANEL
10
24344.60
20
0.00
30
0.0
11
24344.60
21
569.00
31
0.0
0
LINE
8
PANEL
10
24344.60
20
569.00
30
0.0
11
23760.00
21
569.00
31
0.0
0
LINE
8
PANEL
10
23760.00
20
569.00
30
0.0
11
23760.00
21
0.00
31
0.0
0
TEXT
8
LABEL
10
23768.00
20
276.50
30
0.0
40
16.0
1
Back-L-E6 Back-L · Drawer 2 box bottom 585x569
0
LINE
8
PANEL
10
24347.60
20
0.00
30
0.0
11
24932.20
21
0.00
31
0.0
0
LINE
8
PANEL
10
24932.20
20
0.00
30
0.0
11
24932.20
21
569.00
31
0.0
0
LINE
8
PANEL
10
24932.20
20
569.00
30
0.0
11
24347.60
21
569.00
31
0.0
0
LINE
8
PANEL
10
24347.60
20
569.00
30
0.0
11
24347.60
21
0.00
31
0.0
0
TEXT
8
LABEL
10
24355.60
20
276.50
30
0.0
40
16.0
1
Back-L-E9 Back-L · Drawer 3 box bottom 585x569
0
LINE
8
PANEL
10
24935.20
20
0.00
30
0.0
11
25504.20
21
0.00
31
0.0
0
LINE
8
PANEL
10
25504.20
20
0.00
30
0.0
11
25504.20
21
483.60
31
0.0
0
LINE
8
PANEL
10
25504.20
20
483.60
30
0.0
11
24935.20
21
483.60
31
0.0
0
LINE
8
PANEL
10
24935.20
20
483.60
30
0.0
11
24935.20
21
0.00
31
0.0
0
TEXT
8
LABEL
10
24943.20
20
233.80
30
0.0
40
16.0
1
Front-M-E3 Front-M · Drawer 1 box bottom 569x484
0
LINE
8
PANEL
10
25507.20
20
0.00
30
0.0
11
26076.20
21
0.00
31
0.0
0
LINE
8
PANEL
10
26076.20
20
0.00
30
0.0
11
26076.20
21
483.60
31
0.0
0
LINE
8
PANEL
10
26076.20
20
483.60
30
0.0
11
25507.20
21
483.60
31
0.0
0
LINE
8
PANEL
10
25507.20
20
483.60
30
0.0
11
25507.20
21
0.00
31
0.0
0
TEXT
8
LABEL
10
25515.20
20
233.80
30
0.0
40
16.0
1
Front-M-E6 Front-M · Drawer 2 box bottom 569x484
0
LINE
8
PANEL
10
23760.00
20
572.00
30
0.0
11
24329.00
21
572.00
31
0.0
0
LINE
8
PANEL
10
24329.00
20
572.00
30
0.0
11
24329.00
21
1055.60
31
0.0
0
LINE
8
PANEL
10
24329.00
20
1055.60
30
0.0
11
23760.00
21
1055.60
31
0.0
0
LINE
8
PANEL
10
23760.00
20
1055.60
30
0.0
11
23760.00
21
572.00
31
0.0
0
TEXT
8
LABEL
10
23768.00
20
805.80
30
0.0
40
16.0
1
Front-M-E9 Front-M · Drawer 3 box bottom 569x484
0
LINE
8
PANEL
10
24332.00
20
572.00
30
0.0
11
24926.00
21
572.00
31
0.0
0
LINE
8
PANEL
10
24926.00
20
572.00
30
0.0
11
24926.00
21
1045.00
31
0.0
0
LINE
8
PANEL
10
24926.00
20
1045.00
30
0.0
11
24332.00
21
1045.00
31
0.0
0
LINE
8
PANEL
10
24332.00
20
1045.00
30
0.0
11
24332.00
21
572.00
31
0.0
0
TEXT
8
LABEL
10
24340.00
20
800.50
30
0.0
40
16.0
1
Front-M-A2 Front-M · Bottom 594x473
0
LINE
8
PANEL
10
24929.00
20
572.00
30
0.0
11
25711.00
21
572.00
31
0.0
0
LINE
8
PANEL
10
25711.00
20
572.00
30
0.0
11
25711.00
21
1045.00
31
0.0
0
LINE
8
PANEL
10
25711.00
20
1045.00
30
0.0
11
24929.00
21
1045.00
31
0.0
0
LINE
8
PANEL
10
24929.00
20
1045.00
30
0.0
11
24929.00
21
572.00
31
0.0
0
TEXT
8
LABEL
10
24937.00
20
800.50
30
0.0
40
16.0
1
Front-M-B1 Front-M · Back 782x473
0
LINE
8
SHEET
10
26400.00
20
0.00
30
0.0
11
28840.00
21
0.00
31
0.0
0
LINE
8
SHEET
10
28840.00
20
0.00
30
0.0
11
28840.00
21
1220.00
31
0.0
0
LINE
8
SHEET
10
28840.00
20
1220.00
30
0.0
11
26400.00
21
1220.00
31
0.0
0
LINE
8
SHEET
10
26400.00
20
1220.00
30
0.0
11
26400.00
21
0.00
31
0.0
0
TEXT
8
SHEET
10
26405.00
20
1250.00
30
0.0
40
40.0
1
Sheet 11
0
LINE
8
PANEL
10
26400.00
20
0.00
30
0.0
11
26969.00
21
0.00
31
0.0
0
LINE
8
PANEL
10
26969.00
20
0.00
30
0.0
11
26969.00
21
290.00
31
0.0
0
LINE
8
PANEL
10
26969.00
20
290.00
30
0.0
11
26400.00
21
290.00
31
0.0
0
LINE
8
PANEL
10
26400.00
20
290.00
30
0.0
11
26400.00
21
0.00
31
0.0
0
TEXT
8
LABEL
10
26408.00
20
137.00
30
0.0
40
16.0
1
Back-M-E7 Back-M · Drawer 3 box side 1 569x290
0
LINE
8
DADO
10
26412.00
20
0.00
30
0.0
11
26418.00
21
0.00
31
0.0
0
LINE
8
DADO
10
26418.00
20
0.00
30
0.0
11
26418.00
21
290.00
31
0.0
0
LINE
8
DADO
10
26418.00
20
290.00
30
0.0
11
26412.00
21
290.00
31
0.0
0
LINE
8
DADO
10
26412.00
20
290.00
30
0.0
11
26412.00
21
0.00
31
0.0
0
LINE
8
PANEL
10
26972.00
20
0.00
30
0.0
11
27541.00
21
0.00
31
0.0
0
LINE
8
PANEL
10
27541.00
20
0.00
30
0.0
11
27541.00
21
290.00
31
0.0
0
LINE
8
PANEL
10
27541.00
20
290.00
30
0.0
11
26972.00
21
290.00
31
0.0
0
LINE
8
PANEL
10
26972.00
20
290.00
30
0.0
11
26972.00
21
0.00
31
0.0
0
TEXT
8
LABEL
10
26980.00
20
137.00
30
0.0
40
16.0
1
Back-M-E7 Back-M · Drawer 3 box side 2 569x290
0
LINE
8
DADO
10
26984.00
20
0.00
30
0.0
11
26990.00
21
0.00
31
0.0
0
LINE
8
DADO
10
26990.00
20
0.00
30
0.0
11
26990.00
21
290.00
31
0.0
0
LINE
8
DADO
10
26990.00
20
290.00
30
0.0
11
26984.00
21
290.00
31
0.0
0
LINE
8
DADO
10
26984.00
20
290.00
30
0.0
11
26984.00
21
0.00
31
0.0
0
LINE
8
PANEL
10
27544.00
20
0.00
30
0.0
11
28103.60
21
0.00
31
0.0
0
LINE
8
PANEL
10
28103.60
20
0.00
30
0.0
11
28103.60
21
290.00
31
0.0
0
LINE
8
PANEL
10
28103.60
20
290.00
30
0.0
11
27544.00
21
290.00
31
0.0
0
LINE
8
PANEL
10
27544.00
20
290.00
30
0.0
11
27544.00
21
0.00
31
0.0
0
TEXT
8
LABEL
10
27552.00
20
137.00
30
0.0
40
16.0
1
Back-M-E8 Back-M · Drawer 3 box front/back 1 560x290
0
LINE
8
PANEL
10
28106.60
20
0.00
30
0.0
11
28666.20
21
0.00
31
0.0
0
LINE
8
PANEL
10
28666.20
20
0.00
30
0.0
11
28666.20
21
290.00
31
0.0
0
LINE
8
PANEL
10
28666.20
20
290.00
30
0.0
11
28106.60
21
290.00
31
0.0
0
LINE
8
PANEL
10
28106.60
20
290.00
30
0.0
11
28106.60
21
0.00
31
0.0
0
TEXT
8
LABEL
10
28114.60
20
137.00
30
0.0
40
16.0
1
Back-M-E8 Back-M · Drawer 3 box front/back 2 560x290
0
LINE
8
PANEL
10
26400.00
20
293.00
30
0.0
11
26969.00
21
293.00
31
0.0
0
LINE
8
PANEL
10
26969.00
20
293.00
30
0.0
11
26969.00
21
573.00
31
0.0
0
LINE
8
PANEL
10
26969.00
20
573.00
30
0.0
11
26400.00
21
573.00
31
0.0
0
LINE
8
PANEL
10
26400.00
20
573.00
30
0.0
11
26400.00
21
293.00
31
0.0
0
TEXT
8
LABEL
10
26408.00
20
425.00
30
0.0
40
16.0
1
Front-R-E7 Front-R · Drawer 3 box side 1 569x280
0
LINE
8
DADO
10
26412.00
20
293.00
30
0.0
11
26418.00
21
293.00
31
0.0
0
LINE
8
DADO
10
26418.00
20
293.00
30
0.0
11
26418.00
21
573.00
31
0.0
0
LINE
8
DADO
10
26418.00
20
573.00
30
0.0
11
26412.00
21
573.00
31
0.0
0
LINE
8
DADO
10
26412.00
20
573.00
30
0.0
11
26412.00
21
293.00
31
0.0
0
LINE
8
PANEL
10
26972.00
20
293.00
30
0.0
11
27541.00
21
293.00
31
0.0
0
LINE
8
PANEL
10
27541.00
20
293.00
30
0.0
11
27541.00
21
573.00
31
0.0
0
LINE
8
PANEL
10
27541.00
20
573.00
30
0.0
11
26972.00
21
573.00
31
0.0
0
LINE
8
PANEL
10
26972.00
20
573.00
30
0.0
11
26972.00
21
293.00
31
0.0
0
TEXT
8
LABEL
10
26980.00
20
425.00
30
0.0
40
16.0
1
Front-R-E7 Front-R · Drawer 3 box side 2 569x280
0
LINE
8
DADO
10
26984.00
20
293.00
30
0.0
11
26990.00
21
293.00
31
0.0
0
LINE
8
DADO
10
26990.00
20
293.00
30
0.0
11
26990.00
21
573.00
31
0.0
0
LINE
8
DADO
10
26990.00
20
573.00
30
0.0
11
26984.00
21
573.00
31
0.0
0
LINE
8
DADO
10
26984.00
20
573.00
30
0.0
11
26984.00
21
293.00
31
0.0
0
LINE
8
PANEL
10
27544.00
20
293.00
30
0.0
11
28154.60
21
293.00
31
0.0
0
LINE
8
PANEL
10
28154.60
20
293.00
30
0.0
11
28154.60
21
573.00
31
0.0
0
LINE
8
PANEL
10
28154.60
20
573.00
30
0.0
11
27544.00
21
573.00
31
0.0
0
LINE
8
PANEL
10
27544.00
20
573.00
30
0.0
11
27544.00
21
293.00
31
0.0
0
TEXT
8
LABEL
10
27552.00
20
425.00
30
0.0
40
16.0
1
Front-R-E8 Front-R · Drawer 3 box front/back 1 611x280
0
LINE
8
PANEL
10
28157.60
20
293.00
30
0.0
11
28768.20
21
293.00
31
0.0
0
LINE
8
PANEL
10
28768.20
20
293.00
30
0.0
11
28768.20
21
573.00
31
0.0
0
LINE
8
PANEL
10
28768.20
20
573.00
30
0.0
11
28157.60
21
573.00
31
0.0
0
LINE
8
PANEL
10
28157.60
20
573.00
30
0.0
11
28157.60
21
293.00
31
0.0
0
TEXT
8
LABEL
10
28165.60
20
425.00
30
0.0
40
16.0
1
Front-R-E8 Front-R · Drawer 3 box front/back 2 611x280
0
LINE
8
PANEL
10
26400.00
20
576.00
30
0.0
11
26969.00
21
576.00
31
0.0
0
LINE
8
PANEL
10
26969.00
20
576.00
30
0.0
11
26969.00
21
836.00
31
0.0
0
LINE
8
PANEL
10
26969.00
20
836.00
30
0.0
11
26400.00
21
836.00
31
0.0
0
LINE
8
PANEL
10
26400.00
20
836.00
30
0.0
11
26400.00
21
576.00
31
0.0
0
TEXT
8
LABEL
10
26408.00
20
698.00
30
0.0
40
16.0
1
Front-L-E7 Front-L · Drawer 3 box side 1 569x260
0
LINE
8
DADO
10
26412.00
20
576.00
30
0.0
11
26418.00
21
576.00
31
0.0
0
LINE
8
DADO
10
26418.00
20
576.00
30
0.0
11
26418.00
21
836.00
31
0.0
0
LINE
8
DADO
10
26418.00
20
836.00
30
0.0
11
26412.00
21
836.00
31
0.0
0
LINE
8
DADO
10
26412.00
20
836.00
30
0.0
11
26412.00
21
576.00
31
0.0
0
LINE
8
PANEL
10
26972.00
20
576.00
30
0.0
11
27541.00
21
576.00
31
0.0
0
LINE
8
PANEL
10
27541.00
20
576.00
30
0.0
11
27541.00
21
836.00
31
0.0
0
LINE
8
PANEL
10
27541.00
20
836.00
30
0.0
11
26972.00
21
836.00
31
0.0
0
LINE
8
PANEL
10
26972.00
20
836.00
30
0.0
11
26972.00
21
576.00
31
0.0
0
TEXT
8
LABEL
10
26980.00
20
698.00
30
0.0
40
16.0
1
Front-L-E7 Front-L · Drawer 3 box side 2 569x260
0
LINE
8
DADO
10
26984.00
20
576.00
30
0.0
11
26990.00
21
576.00
31
0.0
0
LINE
8
DADO
10
26990.00
20
576.00
30
0.0
11
26990.00
21
836.00
31
0.0
0
LINE
8
DADO
10
26990.00
20
836.00
30
0.0
11
26984.00
21
836.00
31
0.0
0
LINE
8
DADO
10
26984.00
20
836.00
30
0.0
11
26984.00
21
576.00
31
0.0
0
LINE
8
PANEL
10
27544.00
20
576.00
30
0.0
11
28154.60
21
576.00
31
0.0
0
LINE
8
PANEL
10
28154.60
20
576.00
30
0.0
11
28154.60
21
836.00
31
0.0
0
LINE
8
PANEL
10
28154.60
20
836.00
30
0.0
11
27544.00
21
836.00
31
0.0
0
LINE
8
PANEL
10
27544.00
20
836.00
30
0.0
11
27544.00
21
576.00
31
0.0
0
TEXT
8
LABEL
10
27552.00
20
698.00
30
0.0
40
16.0
1
Front-L-E8 Front-L · Drawer 3 box front/back 1 611x260
0
LINE
8
PANEL
10
28157.60
20
576.00
30
0.0
11
28768.20
21
576.00
31
0.0
0
LINE
8
PANEL
10
28768.20
20
576.00
30
0.0
11
28768.20
21
836.00
31
0.0
0
LINE
8
PANEL
10
28768.20
20
836.00
30
0.0
11
28157.60
21
836.00
31
0.0
0
LINE
8
PANEL
10
28157.60
20
836.00
30
0.0
11
28157.60
21
576.00
31
0.0
0
TEXT
8
LABEL
10
28165.60
20
698.00
30
0.0
40
16.0
1
Front-L-E8 Front-L · Drawer 3 box front/back 2 611x260
0
LINE
8
PANEL
10
26400.00
20
839.00
30
0.0
11
26969.00
21
839.00
31
0.0
0
LINE
8
PANEL
10
26969.00
20
839.00
30
0.0
11
26969.00
21
1069.00
31
0.0
0
LINE
8
PANEL
10
26969.00
20
1069.00
30
0.0
11
26400.00
21
1069.00
31
0.0
0
LINE
8
PANEL
10
26400.00
20
1069.00
30
0.0
11
26400.00
21
839.00
31
0.0
0
TEXT
8
LABEL
10
26408.00
20
946.00
30
0.0
40
16.0
1
Back-L-E7 Back-L · Drawer 3 box side 1 569x230
0
LINE
8
DADO
10
26412.00
20
839.00
30
0.0
11
26418.00
21
839.00
31
0.0
0
LINE
8
DADO
10
26418.00
20
839.00
30
0.0
11
26418.00
21
1069.00
31
0.0
0
LINE
8
DADO
10
26418.00
20
1069.00
30
0.0
11
26412.00
21
1069.00
31
0.0
0
LINE
8
DADO
10
26412.00
20
1069.00
30
0.0
11
26412.00
21
839.00
31
0.0
0
LINE
8
PANEL
10
26972.00
20
839.00
30
0.0
11
27541.00
21
839.00
31
0.0
0
LINE
8
PANEL
10
27541.00
20
839.00
30
0.0
11
27541.00
21
1069.00
31
0.0
0
LINE
8
PANEL
10
27541.00
20
1069.00
30
0.0
11
26972.00
21
1069.00
31
0.0
0
LINE
8
PANEL
10
26972.00
20
1069.00
30
0.0
11
26972.00
21
839.00
31
0.0
0
TEXT
8
LABEL
10
26980.00
20
946.00
30
0.0
40
16.0
1
Back-L-E7 Back-L · Drawer 3 box side 2 569x230
0
LINE
8
DADO
10
26984.00
20
839.00
30
0.0
11
26990.00
21
839.00
31
0.0
0
LINE
8
DADO
10
26990.00
20
839.00
30
0.0
11
26990.00
21
1069.00
31
0.0
0
LINE
8
DADO
10
26990.00
20
1069.00
30
0.0
11
26984.00
21
1069.00
31
0.0
0
LINE
8
DADO
10
26984.00
20
1069.00
30
0.0
11
26984.00
21
839.00
31
0.0
0
LINE
8
PANEL
10
27544.00
20
839.00
30
0.0
11
28104.60
21
839.00
31
0.0
0
LINE
8
PANEL
10
28104.60
20
839.00
30
0.0
11
28104.60
21
1069.00
31
0.0
0
LINE
8
PANEL
10
28104.60
20
1069.00
30
0.0
11
27544.00
21
1069.00
31
0.0
0
LINE
8
PANEL
10
27544.00
20
1069.00
30
0.0
11
27544.00
21
839.00
31
0.0
0
TEXT
8
LABEL
10
27552.00
20
946.00
30
0.0
40
16.0
1
Back-L-E8 Back-L · Drawer 3 box front/back 1 561x230
0
LINE
8
PANEL
10
28107.60
20
839.00
30
0.0
11
28668.20
21
839.00
31
0.0
0
LINE
8
PANEL
10
28668.20
20
839.00
30
0.0
11
28668.20
21
1069.00
31
0.0
0
LINE
8
PANEL
10
28668.20
20
1069.00
30
0.0
11
28107.60
21
1069.00
31
0.0
0
LINE
8
PANEL
10
28107.60
20
1069.00
30
0.0
11
28107.60
21
839.00
31
0.0
0
TEXT
8
LABEL
10
28115.60
20
946.00
30
0.0
40
16.0
1
Back-L-E8 Back-L · Drawer 3 box front/back 2 561x230
0
LINE
8
SHEET
10
29040.00
20
0.00
30
0.0
11
31480.00
21
0.00
31
0.0
0
LINE
8
SHEET
10
31480.00
20
0.00
30
0.0
11
31480.00
21
1220.00
31
0.0
0
LINE
8
SHEET
10
31480.00
20
1220.00
30
0.0
11
29040.00
21
1220.00
31
0.0
0
LINE
8
SHEET
10
29040.00
20
1220.00
30
0.0
11
29040.00
21
0.00
31
0.0
0
TEXT
8
SHEET
10
29045.00
20
1250.00
30
0.0
40
40.0
1
Sheet 12
0
LINE
8
PANEL
10
29040.00
20
0.00
30
0.0
11
29609.00
21
0.00
31
0.0
0
LINE
8
PANEL
10
29609.00
20
0.00
30
0.0
11
29609.00
21
220.00
31
0.0
0
LINE
8
PANEL
10
29609.00
20
220.00
30
0.0
11
29040.00
21
220.00
31
0.0
0
LINE
8
PANEL
10
29040.00
20
220.00
30
0.0
11
29040.00
21
0.00
31
0.0
0
TEXT
8
LABEL
10
29048.00
20
102.00
30
0.0
40
16.0
1
Front-M-E7 Front-M · Drawer 3 box side 1 569x220
0
LINE
8
DADO
10
29052.00
20
0.00
30
0.0
11
29058.00
21
0.00
31
0.0
0
LINE
8
DADO
10
29058.00
20
0.00
30
0.0
11
29058.00
21
220.00
31
0.0
0
LINE
8
DADO
10
29058.00
20
220.00
30
0.0
11
29052.00
21
220.00
31
0.0
0
LINE
8
DADO
10
29052.00
20
220.00
30
0.0
11
29052.00
21
0.00
31
0.0
0
LINE
8
PANEL
10
29612.00
20
0.00
30
0.0
11
30181.00
21
0.00
31
0.0
0
LINE
8
PANEL
10
30181.00
20
0.00
30
0.0
11
30181.00
21
220.00
31
0.0
0
LINE
8
PANEL
10
30181.00
20
220.00
30
0.0
11
29612.00
21
220.00
31
0.0
0
LINE
8
PANEL
10
29612.00
20
220.00
30
0.0
11
29612.00
21
0.00
31
0.0
0
TEXT
8
LABEL
10
29620.00
20
102.00
30
0.0
40
16.0
1
Front-M-E7 Front-M · Drawer 3 box side 2 569x220
0
LINE
8
DADO
10
29624.00
20
0.00
30
0.0
11
29630.00
21
0.00
31
0.0
0
LINE
8
DADO
10
29630.00
20
0.00
30
0.0
11
29630.00
21
220.00
31
0.0
0
LINE
8
DADO
10
29630.00
20
220.00
30
0.0
11
29624.00
21
220.00
31
0.0
0
LINE
8
DADO
10
29624.00
20
220.00
30
0.0
11
29624.00
21
0.00
31
0.0
0
LINE
8
PANEL
10
30184.00
20
0.00
30
0.0
11
30643.60
21
0.00
31
0.0
0
LINE
8
PANEL
10
30643.60
20
0.00
30
0.0
11
30643.60
21
220.00
31
0.0
0
LINE
8
PANEL
10
30643.60
20
220.00
30
0.0
11
30184.00
21
220.00
31
0.0
0
LINE
8
PANEL
10
30184.00
20
220.00
30
0.0
11
30184.00
21
0.00
31
0.0
0
TEXT
8
LABEL
10
30192.00
20
102.00
30
0.0
40
16.0
1
Front-M-E8 Front-M · Drawer 3 box front/back 1 460x220
0
LINE
8
PANEL
10
30646.60
20
0.00
30
0.0
11
31106.20
21
0.00
31
0.0
0
LINE
8
PANEL
10
31106.20
20
0.00
30
0.0
11
31106.20
21
220.00
31
0.0
0
LINE
8
PANEL
10
31106.20
20
220.00
30
0.0
11
30646.60
21
220.00
31
0.0
0
LINE
8
PANEL
10
30646.60
20
220.00
30
0.0
11
30646.60
21
0.00
31
0.0
0
TEXT
8
LABEL
10
30654.60
20
102.00
30
0.0
40
16.0
1
Front-M-E8 Front-M · Drawer 3 box front/back 2 460x220
0
LINE
8
PANEL
10
29040.00
20
223.00
30
0.0
11
29609.00
21
223.00
31
0.0
0
LINE
8
PANEL
10
29609.00
20
223.00
30
0.0
11
29609.00
21
433.00
31
0.0
0
LINE
8
PANEL
10
29609.00
20
433.00
30
0.0
11
29040.00
21
433.00
31
0.0
0
LINE
8
PANEL
10
29040.00
20
433.00
30
0.0
11
29040.00
21
223.00
31
0.0
0
TEXT
8
LABEL
10
29048.00
20
320.00
30
0.0
40
16.0
1
Front-M-E4 Front-M · Drawer 2 box side 1 569x210
0
LINE
8
DADO
10
29052.00
20
223.00
30
0.0
11
29058.00
21
223.00
31
0.0
0
LINE
8
DADO
10
29058.00
20
223.00
30
0.0
11
29058.00
21
433.00
31
0.0
0
LINE
8
DADO
10
29058.00
20
433.00
30
0.0
11
29052.00
21
433.00
31
0.0
0
LINE
8
DADO
10
29052.00
20
433.00
30
0.0
11
29052.00
21
223.00
31
0.0
0
LINE
8
PANEL
10
29612.00
20
223.00
30
0.0
11
30181.00
21
223.00
31
0.0
0
LINE
8
PANEL
10
30181.00
20
223.00
30
0.0
11
30181.00
21
433.00
31
0.0
0
LINE
8
PANEL
10
30181.00
20
433.00
30
0.0
11
29612.00
21
433.00
31
0.0
0
LINE
8
PANEL
10
29612.00
20
433.00
30
0.0
11
29612.00
21
223.00
31
0.0
0
TEXT
8
LABEL
10
29620.00
20
320.00
30
0.0
40
16.0
1
Front-M-E4 Front-M · Drawer 2 box side 2 569x210
0
LINE
8
DADO
10
29624.00
20
223.00
30
0.0
11
29630.00
21
223.00
31
0.0
0
LINE
8
DADO
10
29630.00
20
223.00
30
0.0
11
29630.00
21
433.00
31
0.0
0
LINE
8
DADO
10
29630.00
20
433.00
30
0.0
11
29624.00
21
433.00
31
0.0
0
LINE
8
DADO
10
29624.00
20
433.00
30
0.0
11
29624.00
21
223.00
31
0.0
0
LINE
8
PANEL
10
30184.00
20
223.00
30
0.0
11
30643.60
21
223.00
31
0.0
0
LINE
8
PANEL
10
30643.60
20
223.00
30
0.0
11
30643.60
21
433.00
31
0.0
0
LINE
8
PANEL
10
30643.60
20
433.00
30
0.0
11
30184.00
21
433.00
31
0.0
0
LINE
8
PANEL
10
30184.00
20
433.00
30
0.0
11
30184.00
21
223.00
31
0.0
0
TEXT
8
LABEL
10
30192.00
20
320.00
30
0.0
40
16.0
1
Front-M-E5 Front-M · Drawer 2 box front/back 1 460x210
0
LINE
8
PANEL
10
30646.60
20
223.00
30
0.0
11
31106.20
21
223.00
31
0.0
0
LINE
8
PANEL
10
31106.20
20
223.00
30
0.0
11
31106.20
21
433.00
31
0.0
0
LINE
8
PANEL
10
31106.20
20
433.00
30
0.0
11
30646.60
21
433.00
31
0.0
0
LINE
8
PANEL
10
30646.60
20
433.00
30
0.0
11
30646.60
21
223.00
31
0.0
0
TEXT
8
LABEL
10
30654.60
20
320.00
30
0.0
40
16.0
1
Front-M-E5 Front-M · Drawer 2 box front/back 2 460x210
0
LINE
8
PANEL
10
29040.00
20
436.00
30
0.0
11
29609.00
21
436.00
31
0.0
0
LINE
8
PANEL
10
29609.00
20
436.00
30
0.0
11
29609.00
21
646.00
31
0.0
0
LINE
8
PANEL
10
29609.00
20
646.00
30
0.0
11
29040.00
21
646.00
31
0.0
0
LINE
8
PANEL
10
29040.00
20
646.00
30
0.0
11
29040.00
21
436.00
31
0.0
0
TEXT
8
LABEL
10
29048.00
20
533.00
30
0.0
40
16.0
1
Back-R-E7 Back-R · Drawer 3 box side 1 569x210
0
LINE
8
DADO
10
29052.00
20
436.00
30
0.0
11
29058.00
21
436.00
31
0.0
0
LINE
8
DADO
10
29058.00
20
436.00
30
0.0
11
29058.00
21
646.00
31
0.0
0
LINE
8
DADO
10
29058.00
20
646.00
30
0.0
11
29052.00
21
646.00
31
0.0
0
LINE
8
DADO
10
29052.00
20
646.00
30
0.0
11
29052.00
21
436.00
31
0.0
0
LINE
8
PANEL
10
29612.00
20
436.00
30
0.0
11
30181.00
21
436.00
31
0.0
0
LINE
8
PANEL
10
30181.00
20
436.00
30
0.0
11
30181.00
21
646.00
31
0.0
0
LINE
8
PANEL
10
30181.00
20
646.00
30
0.0
11
29612.00
21
646.00
31
0.0
0
LINE
8
PANEL
10
29612.00
20
646.00
30
0.0
11
29612.00
21
436.00
31
0.0
0
TEXT
8
LABEL
10
29620.00
20
533.00
30
0.0
40
16.0
1
Back-R-E7 Back-R · Drawer 3 box side 2 569x210
0
LINE
8
DADO
10
29624.00
20
436.00
30
0.0
11
29630.00
21
436.00
31
0.0
0
LINE
8
DADO
10
29630.00
20
436.00
30
0.0
11
29630.00
21
646.00
31
0.0
0
LINE
8
DADO
10
29630.00
20
646.00
30
0.0
11
29624.00
21
646.00
31
0.0
0
LINE
8
DADO
10
29624.00
20
646.00
30
0.0
11
29624.00
21
436.00
31
0.0
0
LINE
8
PANEL
10
30184.00
20
436.00
30
0.0
11
30744.60
21
436.00
31
0.0
0
LINE
8
PANEL
10
30744.60
20
436.00
30
0.0
11
30744.60
21
646.00
31
0.0
0
LINE
8
PANEL
10
30744.60
20
646.00
30
0.0
11
30184.00
21
646.00
31
0.0
0
LINE
8
PANEL
10
30184.00
20
646.00
30
0.0
11
30184.00
21
436.00
31
0.0
0
TEXT
8
LABEL
10
30192.00
20
533.00
30
0.0
40
16.0
1
Back-R-E8 Back-R · Drawer 3 box front/back 1 561x210
0
LINE
8
PANEL
10
30747.60
20
436.00
30
0.0
11
31308.20
21
436.00
31
0.0
0
LINE
8
PANEL
10
31308.20
20
436.00
30
0.0
11
31308.20
21
646.00
31
0.0
0
LINE
8
PANEL
10
31308.20
20
646.00
30
0.0
11
30747.60
21
646.00
31
0.0
0
LINE
8
PANEL
10
30747.60
20
646.00
30
0.0
11
30747.60
21
436.00
31
0.0
0
TEXT
8
LABEL
10
30755.60
20
533.00
30
0.0
40
16.0
1
Back-R-E8 Back-R · Drawer 3 box front/back 2 561x210
0
LINE
8
PANEL
10
29040.00
20
649.00
30
0.0
11
29609.00
21
649.00
31
0.0
0
LINE
8
PANEL
10
29609.00
20
649.00
30
0.0
11
29609.00
21
849.00
31
0.0
0
LINE
8
PANEL
10
29609.00
20
849.00
30
0.0
11
29040.00
21
849.00
31
0.0
0
LINE
8
PANEL
10
29040.00
20
849.00
30
0.0
11
29040.00
21
649.00
31
0.0
0
TEXT
8
LABEL
10
29048.00
20
741.00
30
0.0
40
16.0
1
Back-R-E4 Back-R · Drawer 2 box side 1 569x200
0
LINE
8
DADO
10
29052.00
20
649.00
30
0.0
11
29058.00
21
649.00
31
0.0
0
LINE
8
DADO
10
29058.00
20
649.00
30
0.0
11
29058.00
21
849.00
31
0.0
0
LINE
8
DADO
10
29058.00
20
849.00
30
0.0
11
29052.00
21
849.00
31
0.0
0
LINE
8
DADO
10
29052.00
20
849.00
30
0.0
11
29052.00
21
649.00
31
0.0
0
LINE
8
PANEL
10
29612.00
20
649.00
30
0.0
11
30181.00
21
649.00
31
0.0
0
LINE
8
PANEL
10
30181.00
20
649.00
30
0.0
11
30181.00
21
849.00
31
0.0
0
LINE
8
PANEL
10
30181.00
20
849.00
30
0.0
11
29612.00
21
849.00
31
0.0
0
LINE
8
PANEL
10
29612.00
20
849.00
30
0.0
11
29612.00
21
649.00
31
0.0
0
TEXT
8
LABEL
10
29620.00
20
741.00
30
0.0
40
16.0
1
Back-R-E4 Back-R · Drawer 2 box side 2 569x200
0
LINE
8
DADO
10
29624.00
20
649.00
30
0.0
11
29630.00
21
649.00
31
0.0
0
LINE
8
DADO
10
29630.00
20
649.00
30
0.0
11
29630.00
21
849.00
31
0.0
0
LINE
8
DADO
10
29630.00
20
849.00
30
0.0
11
29624.00
21
849.00
31
0.0
0
LINE
8
DADO
10
29624.00
20
849.00
30
0.0
11
29624.00
21
649.00
31
0.0
0
LINE
8
PANEL
10
30184.00
20
649.00
30
0.0
11
30744.60
21
649.00
31
0.0
0
LINE
8
PANEL
10
30744.60
20
649.00
30
0.0
11
30744.60
21
849.00
31
0.0
0
LINE
8
PANEL
10
30744.60
20
849.00
30
0.0
11
30184.00
21
849.00
31
0.0
0
LINE
8
PANEL
10
30184.00
20
849.00
30
0.0
11
30184.00
21
649.00
31
0.0
0
TEXT
8
LABEL
10
30192.00
20
741.00
30
0.0
40
16.0
1
Back-R-E5 Back-R · Drawer 2 box front/back 1 561x200
0
LINE
8
PANEL
10
30747.60
20
649.00
30
0.0
11
31308.20
21
649.00
31
0.0
0
LINE
8
PANEL
10
31308.20
20
649.00
30
0.0
11
31308.20
21
849.00
31
0.0
0
LINE
8
PANEL
10
31308.20
20
849.00
30
0.0
11
30747.60
21
849.00
31
0.0
0
LINE
8
PANEL
10
30747.60
20
849.00
30
0.0
11
30747.60
21
649.00
31
0.0
0
TEXT
8
LABEL
10
30755.60
20
741.00
30
0.0
40
16.0
1
Back-R-E5 Back-R · Drawer 2 box front/back 2 561x200
0
LINE
8
PANEL
10
29040.00
20
852.00
30
0.0
11
29609.00
21
852.00
31
0.0
0
LINE
8
PANEL
10
29609.00
20
852.00
30
0.0
11
29609.00
21
1052.00
31
0.0
0
LINE
8
PANEL
10
29609.00
20
1052.00
30
0.0
11
29040.00
21
1052.00
31
0.0
0
LINE
8
PANEL
10
29040.00
20
1052.00
30
0.0
11
29040.00
21
852.00
31
0.0
0
TEXT
8
LABEL
10
29048.00
20
944.00
30
0.0
40
16.0
1
Back-L-E4 Back-L · Drawer 2 box side 1 569x200
0
LINE
8
DADO
10
29052.00
20
852.00
30
0.0
11
29058.00
21
852.00
31
0.0
0
LINE
8
DADO
10
29058.00
20
852.00
30
0.0
11
29058.00
21
1052.00
31
0.0
0
LINE
8
DADO
10
29058.00
20
1052.00
30
0.0
11
29052.00
21
1052.00
31
0.0
0
LINE
8
DADO
10
29052.00
20
1052.00
30
0.0
11
29052.00
21
852.00
31
0.0
0
LINE
8
PANEL
10
29612.00
20
852.00
30
0.0
11
30181.00
21
852.00
31
0.0
0
LINE
8
PANEL
10
30181.00
20
852.00
30
0.0
11
30181.00
21
1052.00
31
0.0
0
LINE
8
PANEL
10
30181.00
20
1052.00
30
0.0
11
29612.00
21
1052.00
31
0.0
0
LINE
8
PANEL
10
29612.00
20
1052.00
30
0.0
11
29612.00
21
852.00
31
0.0
0
TEXT
8
LABEL
10
29620.00
20
944.00
30
0.0
40
16.0
1
Back-L-E4 Back-L · Drawer 2 box side 2 569x200
0
LINE
8
DADO
10
29624.00
20
852.00
30
0.0
11
29630.00
21
852.00
31
0.0
0
LINE
8
DADO
10
29630.00
20
852.00
30
0.0
11
29630.00
21
1052.00
31
0.0
0
LINE
8
DADO
10
29630.00
20
1052.00
30
0.0
11
29624.00
21
1052.00
31
0.0
0
LINE
8
DADO
10
29624.00
20
1052.00
30
0.0
11
29624.00
21
852.00
31
0.0
0
LINE
8
PANEL
10
30184.00
20
852.00
30
0.0
11
30744.60
21
852.00
31
0.0
0
LINE
8
PANEL
10
30744.60
20
852.00
30
0.0
11
30744.60
21
1052.00
31
0.0
0
LINE
8
PANEL
10
30744.60
20
1052.00
30
0.0
11
30184.00
21
1052.00
31
0.0
0
LINE
8
PANEL
10
30184.00
20
1052.00
30
0.0
11
30184.00
21
852.00
31
0.0
0
TEXT
8
LABEL
10
30192.00
20
944.00
30
0.0
40
16.0
1
Back-L-E5 Back-L · Drawer 2 box front/back 1 561x200
0
LINE
8
PANEL
10
30747.60
20
852.00
30
0.0
11
31308.20
21
852.00
31
0.0
0
LINE
8
PANEL
10
31308.20
20
852.00
30
0.0
11
31308.20
21
1052.00
31
0.0
0
LINE
8
PANEL
10
31308.20
20
1052.00
30
0.0
11
30747.60
21
1052.00
31
0.0
0
LINE
8
PANEL
10
30747.60
20
1052.00
30
0.0
11
30747.60
21
852.00
31
0.0
0
TEXT
8
LABEL
10
30755.60
20
944.00
30
0.0
40
16.0
1
Back-L-E5 Back-L · Drawer 2 box front/back 2 561x200
0
LINE
8
SHEET
10
31680.00
20
0.00
30
0.0
11
34120.00
21
0.00
31
0.0
0
LINE
8
SHEET
10
34120.00
20
0.00
30
0.0
11
34120.00
21
1220.00
31
0.0
0
LINE
8
SHEET
10
34120.00
20
1220.00
30
0.0
11
31680.00
21
1220.00
31
0.0
0
LINE
8
SHEET
10
31680.00
20
1220.00
30
0.0
11
31680.00
21
0.00
31
0.0
0
TEXT
8
SHEET
10
31685.00
20
1250.00
30
0.0
40
40.0
1
Sheet 13
0
LINE
8
PANEL
10
31680.00
20
0.00
30
0.0
11
32249.00
21
0.00
31
0.0
0
LINE
8
PANEL
10
32249.00
20
0.00
30
0.0
11
32249.00
21
190.00
31
0.0
0
LINE
8
PANEL
10
32249.00
20
190.00
30
0.0
11
31680.00
21
190.00
31
0.0
0
LINE
8
PANEL
10
31680.00
20
190.00
30
0.0
11
31680.00
21
0.00
31
0.0
0
TEXT
8
LABEL
10
31688.00
20
87.00
30
0.0
40
16.0
1
Front-L-E4 Front-L · Drawer 2 box side 1 569x190
0
LINE
8
DADO
10
31692.00
20
0.00
30
0.0
11
31698.00
21
0.00
31
0.0
0
LINE
8
DADO
10
31698.00
20
0.00
30
0.0
11
31698.00
21
190.00
31
0.0
0
LINE
8
DADO
10
31698.00
20
190.00
30
0.0
11
31692.00
21
190.00
31
0.0
0
LINE
8
DADO
10
31692.00
20
190.00
30
0.0
11
31692.00
21
0.00
31
0.0
0
LINE
8
PANEL
10
32252.00
20
0.00
30
0.0
11
32821.00
21
0.00
31
0.0
0
LINE
8
PANEL
10
32821.00
20
0.00
30
0.0
11
32821.00
21
190.00
31
0.0
0
LINE
8
PANEL
10
32821.00
20
190.00
30
0.0
11
32252.00
21
190.00
31
0.0
0
LINE
8
PANEL
10
32252.00
20
190.00
30
0.0
11
32252.00
21
0.00
31
0.0
0
TEXT
8
LABEL
10
32260.00
20
87.00
30
0.0
40
16.0
1
Front-L-E4 Front-L · Drawer 2 box side 2 569x190
0
LINE
8
DADO
10
32264.00
20
0.00
30
0.0
11
32270.00
21
0.00
31
0.0
0
LINE
8
DADO
10
32270.00
20
0.00
30
0.0
11
32270.00
21
190.00
31
0.0
0
LINE
8
DADO
10
32270.00
20
190.00
30
0.0
11
32264.00
21
190.00
31
0.0
0
LINE
8
DADO
10
32264.00
20
190.00
30
0.0
11
32264.00
21
0.00
31
0.0
0
LINE
8
PANEL
10
32824.00
20
0.00
30
0.0
11
33434.60
21
0.00
31
0.0
0
LINE
8
PANEL
10
33434.60
20
0.00
30
0.0
11
33434.60
21
190.00
31
0.0
0
LINE
8
PANEL
10
33434.60
20
190.00
30
0.0
11
32824.00
21
190.00
31
0.0
0
LINE
8
PANEL
10
32824.00
20
190.00
30
0.0
11
32824.00
21
0.00
31
0.0
0
TEXT
8
LABEL
10
32832.00
20
87.00
30
0.0
40
16.0
1
Front-L-E5 Front-L · Drawer 2 box front/back 1 611x190
0
LINE
8
PANEL
10
33437.60
20
0.00
30
0.0
11
34048.20
21
0.00
31
0.0
0
LINE
8
PANEL
10
34048.20
20
0.00
30
0.0
11
34048.20
21
190.00
31
0.0
0
LINE
8
PANEL
10
34048.20
20
190.00
30
0.0
11
33437.60
21
190.00
31
0.0
0
LINE
8
PANEL
10
33437.60
20
190.00
30
0.0
11
33437.60
21
0.00
31
0.0
0
TEXT
8
LABEL
10
33445.60
20
87.00
30
0.0
40
16.0
1
Front-L-E5 Front-L · Drawer 2 box front/back 2 611x190
0
LINE
8
PANEL
10
31680.00
20
193.00
30
0.0
11
32249.00
21
193.00
31
0.0
0
LINE
8
PANEL
10
32249.00
20
193.00
30
0.0
11
32249.00
21
373.00
31
0.0
0
LINE
8
PANEL
10
32249.00
20
373.00
30
0.0
11
31680.00
21
373.00
31
0.0
0
LINE
8
PANEL
10
31680.00
20
373.00
30
0.0
11
31680.00
21
193.00
31
0.0
0
TEXT
8
LABEL
10
31688.00
20
275.00
30
0.0
40
16.0
1
Front-R-E4 Front-R · Drawer 2 box side 1 569x180
0
LINE
8
DADO
10
31692.00
20
193.00
30
0.0
11
31698.00
21
193.00
31
0.0
0
LINE
8
DADO
10
31698.00
20
193.00
30
0.0
11
31698.00
21
373.00
31
0.0
0
LINE
8
DADO
10
31698.00
20
373.00
30
0.0
11
31692.00
21
373.00
31
0.0
0
LINE
8
DADO
10
31692.00
20
373.00
30
0.0
11
31692.00
21
193.00
31
0.0
0
LINE
8
PANEL
10
32252.00
20
193.00
30
0.0
11
32821.00
21
193.00
31
0.0
0
LINE
8
PANEL
10
32821.00
20
193.00
30
0.0
11
32821.00
21
373.00
31
0.0
0
LINE
8
PANEL
10
32821.00
20
373.00
30
0.0
11
32252.00
21
373.00
31
0.0
0
LINE
8
PANEL
10
32252.00
20
373.00
30
0.0
11
32252.00
21
193.00
31
0.0
0
TEXT
8
LABEL
10
32260.00
20
275.00
30
0.0
40
16.0
1
Front-R-E4 Front-R · Drawer 2 box side 2 569x180
0
LINE
8
DADO
10
32264.00
20
193.00
30
0.0
11
32270.00
21
193.00
31
0.0
0
LINE
8
DADO
10
32270.00
20
193.00
30
0.0
11
32270.00
21
373.00
31
0.0
0
LINE
8
DADO
10
32270.00
20
373.00
30
0.0
11
32264.00
21
373.00
31
0.0
0
LINE
8
DADO
10
32264.00
20
373.00
30
0.0
11
32264.00
21
193.00
31
0.0
0
LINE
8
PANEL
10
32824.00
20
193.00
30
0.0
11
33434.60
21
193.00
31
0.0
0
LINE
8
PANEL
10
33434.60
20
193.00
30
0.0
11
33434.60
21
373.00
31
0.0
0
LINE
8
PANEL
10
33434.60
20
373.00
30
0.0
11
32824.00
21
373.00
31
0.0
0
LINE
8
PANEL
10
32824.00
20
373.00
30
0.0
11
32824.00
21
193.00
31
0.0
0
TEXT
8
LABEL
10
32832.00
20
275.00
30
0.0
40
16.0
1
Front-R-E5 Front-R · Drawer 2 box front/back 1 611x180
0
LINE
8
PANEL
10
33437.60
20
193.00
30
0.0
11
34048.20
21
193.00
31
0.0
0
LINE
8
PANEL
10
34048.20
20
193.00
30
0.0
11
34048.20
21
373.00
31
0.0
0
LINE
8
PANEL
10
34048.20
20
373.00
30
0.0
11
33437.60
21
373.00
31
0.0
0
LINE
8
PANEL
10
33437.60
20
373.00
30
0.0
11
33437.60
21
193.00
31
0.0
0
TEXT
8
LABEL
10
33445.60
20
275.00
30
0.0
40
16.0
1
Front-R-E5 Front-R · Drawer 2 box front/back 2 611x180
0
LINE
8
PANEL
10
31680.00
20
376.00
30
0.0
11
32249.00
21
376.00
31
0.0
0
LINE
8
PANEL
10
32249.00
20
376.00
30
0.0
11
32249.00
21
546.00
31
0.0
0
LINE
8
PANEL
10
32249.00
20
546.00
30
0.0
11
31680.00
21
546.00
31
0.0
0
LINE
8
PANEL
10
31680.00
20
546.00
30
0.0
11
31680.00
21
376.00
31
0.0
0
TEXT
8
LABEL
10
31688.00
20
453.00
30
0.0
40
16.0
1
Back-M-E4 Back-M · Drawer 2 box side 1 569x170
0
LINE
8
DADO
10
31692.00
20
376.00
30
0.0
11
31698.00
21
376.00
31
0.0
0
LINE
8
DADO
10
31698.00
20
376.00
30
0.0
11
31698.00
21
546.00
31
0.0
0
LINE
8
DADO
10
31698.00
20
546.00
30
0.0
11
31692.00
21
546.00
31
0.0
0
LINE
8
DADO
10
31692.00
20
546.00
30
0.0
11
31692.00
21
376.00
31
0.0
0
LINE
8
PANEL
10
32252.00
20
376.00
30
0.0
11
32821.00
21
376.00
31
0.0
0
LINE
8
PANEL
10
32821.00
20
376.00
30
0.0
11
32821.00
21
546.00
31
0.0
0
LINE
8
PANEL
10
32821.00
20
546.00
30
0.0
11
32252.00
21
546.00
31
0.0
0
LINE
8
PANEL
10
32252.00
20
546.00
30
0.0
11
32252.00
21
376.00
31
0.0
0
TEXT
8
LABEL
10
32260.00
20
453.00
30
0.0
40
16.0
1
Back-M-E4 Back-M · Drawer 2 box side 2 569x170
0
LINE
8
DADO
10
32264.00
20
376.00
30
0.0
11
32270.00
21
376.00
31
0.0
0
LINE
8
DADO
10
32270.00
20
376.00
30
0.0
11
32270.00
21
546.00
31
0.0
0
LINE
8
DADO
10
32270.00
20
546.00
30
0.0
11
32264.00
21
546.00
31
0.0
0
LINE
8
DADO
10
32264.00
20
546.00
30
0.0
11
32264.00
21
376.00
31
0.0
0
LINE
8
PANEL
10
32824.00
20
376.00
30
0.0
11
33383.60
21
376.00
31
0.0
0
LINE
8
PANEL
10
33383.60
20
376.00
30
0.0
11
33383.60
21
546.00
31
0.0
0
LINE
8
PANEL
10
33383.60
20
546.00
30
0.0
11
32824.00
21
546.00
31
0.0
0
LINE
8
PANEL
10
32824.00
20
546.00
30
0.0
11
32824.00
21
376.00
31
0.0
0
TEXT
8
LABEL
10
32832.00
20
453.00
30
0.0
40
16.0
1
Back-M-E5 Back-M · Drawer 2 box front/back 1 560x170
0
LINE
8
PANEL
10
33386.60
20
376.00
30
0.0
11
33946.20
21
376.00
31
0.0
0
LINE
8
PANEL
10
33946.20
20
376.00
30
0.0
11
33946.20
21
546.00
31
0.0
0
LINE
8
PANEL
10
33946.20
20
546.00
30
0.0
11
33386.60
21
546.00
31
0.0
0
LINE
8
PANEL
10
33386.60
20
546.00
30
0.0
11
33386.60
21
376.00
31
0.0
0
TEXT
8
LABEL
10
33394.60
20
453.00
30
0.0
40
16.0
1
Back-M-E5 Back-M · Drawer 2 box front/back 2 560x170
0
LINE
8
PANEL
10
31680.00
20
549.00
30
0.0
11
32249.00
21
549.00
31
0.0
0
LINE
8
PANEL
10
32249.00
20
549.00
30
0.0
11
32249.00
21
709.00
31
0.0
0
LINE
8
PANEL
10
32249.00
20
709.00
30
0.0
11
31680.00
21
709.00
31
0.0
0
LINE
8
PANEL
10
31680.00
20
709.00
30
0.0
11
31680.00
21
549.00
31
0.0
0
TEXT
8
LABEL
10
31688.00
20
621.00
30
0.0
40
16.0
1
Back-R-E1 Back-R · Drawer 1 box side 1 569x160
0
LINE
8
DADO
10
31692.00
20
549.00
30
0.0
11
31698.00
21
549.00
31
0.0
0
LINE
8
DADO
10
31698.00
20
549.00
30
0.0
11
31698.00
21
709.00
31
0.0
0
LINE
8
DADO
10
31698.00
20
709.00
30
0.0
11
31692.00
21
709.00
31
0.0
0
LINE
8
DADO
10
31692.00
20
709.00
30
0.0
11
31692.00
21
549.00
31
0.0
0
LINE
8
PANEL
10
32252.00
20
549.00
30
0.0
11
32821.00
21
549.00
31
0.0
0
LINE
8
PANEL
10
32821.00
20
549.00
30
0.0
11
32821.00
21
709.00
31
0.0
0
LINE
8
PANEL
10
32821.00
20
709.00
30
0.0
11
32252.00
21
709.00
31
0.0
0
LINE
8
PANEL
10
32252.00
20
709.00
30
0.0
11
32252.00
21
549.00
31
0.0
0
TEXT
8
LABEL
10
32260.00
20
621.00
30
0.0
40
16.0
1
Back-R-E1 Back-R · Drawer 1 box side 2 569x160
0
LINE
8
DADO
10
32264.00
20
549.00
30
0.0
11
32270.00
21
549.00
31
0.0
0
LINE
8
DADO
10
32270.00
20
549.00
30
0.0
11
32270.00
21
709.00
31
0.0
0
LINE
8
DADO
10
32270.00
20
709.00
30
0.0
11
32264.00
21
709.00
31
0.0
0
LINE
8
DADO
10
32264.00
20
709.00
30
0.0
11
32264.00
21
549.00
31
0.0
0
LINE
8
PANEL
10
32824.00
20
549.00
30
0.0
11
33384.60
21
549.00
31
0.0
0
LINE
8
PANEL
10
33384.60
20
549.00
30
0.0
11
33384.60
21
709.00
31
0.0
0
LINE
8
PANEL
10
33384.60
20
709.00
30
0.0
11
32824.00
21
709.00
31
0.0
0
LINE
8
PANEL
10
32824.00
20
709.00
30
0.0
11
32824.00
21
549.00
31
0.0
0
TEXT
8
LABEL
10
32832.00
20
621.00
30
0.0
40
16.0
1
Back-R-E2 Back-R · Drawer 1 box front/back 1 561x160
0
LINE
8
PANEL
10
33387.60
20
549.00
30
0.0
11
33948.20
21
549.00
31
0.0
0
LINE
8
PANEL
10
33948.20
20
549.00
30
0.0
11
33948.20
21
709.00
31
0.0
0
LINE
8
PANEL
10
33948.20
20
709.00
30
0.0
11
33387.60
21
709.00
31
0.0
0
LINE
8
PANEL
10
33387.60
20
709.00
30
0.0
11
33387.60
21
549.00
31
0.0
0
TEXT
8
LABEL
10
33395.60
20
621.00
30
0.0
40
16.0
1
Back-R-E2 Back-R · Drawer 1 box front/back 2 561x160
0
LINE
8
PANEL
10
31680.00
20
712.00
30
0.0
11
32249.00
21
712.00
31
0.0
0
LINE
8
PANEL
10
32249.00
20
712.00
30
0.0
11
32249.00
21
862.00
31
0.0
0
LINE
8
PANEL
10
32249.00
20
862.00
30
0.0
11
31680.00
21
862.00
31
0.0
0
LINE
8
PANEL
10
31680.00
20
862.00
30
0.0
11
31680.00
21
712.00
31
0.0
0
TEXT
8
LABEL
10
31688.00
20
779.00
30
0.0
40
16.0
1
Front-M-E1 Front-M · Drawer 1 box side 1 569x150
0
LINE
8
DADO
10
31692.00
20
712.00
30
0.0
11
31698.00
21
712.00
31
0.0
0
LINE
8
DADO
10
31698.00
20
712.00
30
0.0
11
31698.00
21
862.00
31
0.0
0
LINE
8
DADO
10
31698.00
20
862.00
30
0.0
11
31692.00
21
862.00
31
0.0
0
LINE
8
DADO
10
31692.00
20
862.00
30
0.0
11
31692.00
21
712.00
31
0.0
0
LINE
8
PANEL
10
32252.00
20
712.00
30
0.0
11
32821.00
21
712.00
31
0.0
0
LINE
8
PANEL
10
32821.00
20
712.00
30
0.0
11
32821.00
21
862.00
31
0.0
0
LINE
8
PANEL
10
32821.00
20
862.00
30
0.0
11
32252.00
21
862.00
31
0.0
0
LINE
8
PANEL
10
32252.00
20
862.00
30
0.0
11
32252.00
21
712.00
31
0.0
0
TEXT
8
LABEL
10
32260.00
20
779.00
30
0.0
40
16.0
1
Front-M-E1 Front-M · Drawer 1 box side 2 569x150
0
LINE
8
DADO
10
32264.00
20
712.00
30
0.0
11
32270.00
21
712.00
31
0.0
0
LINE
8
DADO
10
32270.00
20
712.00
30
0.0
11
32270.00
21
862.00
31
0.0
0
LINE
8
DADO
10
32270.00
20
862.00
30
0.0
11
32264.00
21
862.00
31
0.0
0
LINE
8
DADO
10
32264.00
20
862.00
30
0.0
11
32264.00
21
712.00
31
0.0
0
LINE
8
PANEL
10
32824.00
20
712.00
30
0.0
11
33283.60
21
712.00
31
0.0
0
LINE
8
PANEL
10
33283.60
20
712.00
30
0.0
11
33283.60
21
862.00
31
0.0
0
LINE
8
PANEL
10
33283.60
20
862.00
30
0.0
11
32824.00
21
862.00
31
0.0
0
LINE
8
PANEL
10
32824.00
20
862.00
30
0.0
11
32824.00
21
712.00
31
0.0
0
TEXT
8
LABEL
10
32832.00
20
779.00
30
0.0
40
16.0
1
Front-M-E2 Front-M · Drawer 1 box front/back 1 460x150
0
LINE
8
PANEL
10
33286.60
20
712.00
30
0.0
11
33746.20
21
712.00
31
0.0
0
LINE
8
PANEL
10
33746.20
20
712.00
30
0.0
11
33746.20
21
862.00
31
0.0
0
LINE
8
PANEL
10
33746.20
20
862.00
30
0.0
11
33286.60
21
862.00
31
0.0
0
LINE
8
PANEL
10
33286.60
20
862.00
30
0.0
11
33286.60
21
712.00
31
0.0
0
TEXT
8
LABEL
10
33294.60
20
779.00
30
0.0
40
16.0
1
Front-M-E2 Front-M · Drawer 1 box front/back 2 460x150
0
LINE
8
PANEL
10
31680.00
20
865.00
30
0.0
11
32249.00
21
865.00
31
0.0
0
LINE
8
PANEL
10
32249.00
20
865.00
30
0.0
11
32249.00
21
1005.00
31
0.0
0
LINE
8
PANEL
10
32249.00
20
1005.00
30
0.0
11
31680.00
21
1005.00
31
0.0
0
LINE
8
PANEL
10
31680.00
20
1005.00
30
0.0
11
31680.00
21
865.00
31
0.0
0
TEXT
8
LABEL
10
31688.00
20
927.00
30
0.0
40
16.0
1
Back-L-E1 Back-L · Drawer 1 box side 1 569x140
0
LINE
8
DADO
10
31692.00
20
865.00
30
0.0
11
31698.00
21
865.00
31
0.0
0
LINE
8
DADO
10
31698.00
20
865.00
30
0.0
11
31698.00
21
1005.00
31
0.0
0
LINE
8
DADO
10
31698.00
20
1005.00
30
0.0
11
31692.00
21
1005.00
31
0.0
0
LINE
8
DADO
10
31692.00
20
1005.00
30
0.0
11
31692.00
21
865.00
31
0.0
0
LINE
8
PANEL
10
32252.00
20
865.00
30
0.0
11
32821.00
21
865.00
31
0.0
0
LINE
8
PANEL
10
32821.00
20
865.00
30
0.0
11
32821.00
21
1005.00
31
0.0
0
LINE
8
PANEL
10
32821.00
20
1005.00
30
0.0
11
32252.00
21
1005.00
31
0.0
0
LINE
8
PANEL
10
32252.00
20
1005.00
30
0.0
11
32252.00
21
865.00
31
0.0
0
TEXT
8
LABEL
10
32260.00
20
927.00
30
0.0
40
16.0
1
Back-L-E1 Back-L · Drawer 1 box side 2 569x140
0
LINE
8
DADO
10
32264.00
20
865.00
30
0.0
11
32270.00
21
865.00
31
0.0
0
LINE
8
DADO
10
32270.00
20
865.00
30
0.0
11
32270.00
21
1005.00
31
0.0
0
LINE
8
DADO
10
32270.00
20
1005.00
30
0.0
11
32264.00
21
1005.00
31
0.0
0
LINE
8
DADO
10
32264.00
20
1005.00
30
0.0
11
32264.00
21
865.00
31
0.0
0
LINE
8
PANEL
10
32824.00
20
865.00
30
0.0
11
33384.60
21
865.00
31
0.0
0
LINE
8
PANEL
10
33384.60
20
865.00
30
0.0
11
33384.60
21
1005.00
31
0.0
0
LINE
8
PANEL
10
33384.60
20
1005.00
30
0.0
11
32824.00
21
1005.00
31
0.0
0
LINE
8
PANEL
10
32824.00
20
1005.00
30
0.0
11
32824.00
21
865.00
31
0.0
0
TEXT
8
LABEL
10
32832.00
20
927.00
30
0.0
40
16.0
1
Back-L-E2 Back-L · Drawer 1 box front/back 1 561x140
0
LINE
8
PANEL
10
33387.60
20
865.00
30
0.0
11
33948.20
21
865.00
31
0.0
0
LINE
8
PANEL
10
33948.20
20
865.00
30
0.0
11
33948.20
21
1005.00
31
0.0
0
LINE
8
PANEL
10
33948.20
20
1005.00
30
0.0
11
33387.60
21
1005.00
31
0.0
0
LINE
8
PANEL
10
33387.60
20
1005.00
30
0.0
11
33387.60
21
865.00
31
0.0
0
TEXT
8
LABEL
10
33395.60
20
927.00
30
0.0
40
16.0
1
Back-L-E2 Back-L · Drawer 1 box front/back 2 561x140
0
LINE
8
PANEL
10
31680.00
20
1008.00
30
0.0
11
32249.00
21
1008.00
31
0.0
0
LINE
8
PANEL
10
32249.00
20
1008.00
30
0.0
11
32249.00
21
1128.00
31
0.0
0
LINE
8
PANEL
10
32249.00
20
1128.00
30
0.0
11
31680.00
21
1128.00
31
0.0
0
LINE
8
PANEL
10
31680.00
20
1128.00
30
0.0
11
31680.00
21
1008.00
31
0.0
0
TEXT
8
LABEL
10
31688.00
20
1060.00
30
0.0
40
16.0
1
Front-L-E1 Front-L · Drawer 1 box side 1 569x120
0
LINE
8
DADO
10
31692.00
20
1008.00
30
0.0
11
31698.00
21
1008.00
31
0.0
0
LINE
8
DADO
10
31698.00
20
1008.00
30
0.0
11
31698.00
21
1128.00
31
0.0
0
LINE
8
DADO
10
31698.00
20
1128.00
30
0.0
11
31692.00
21
1128.00
31
0.0
0
LINE
8
DADO
10
31692.00
20
1128.00
30
0.0
11
31692.00
21
1008.00
31
0.0
0
LINE
8
PANEL
10
32252.00
20
1008.00
30
0.0
11
32821.00
21
1008.00
31
0.0
0
LINE
8
PANEL
10
32821.00
20
1008.00
30
0.0
11
32821.00
21
1128.00
31
0.0
0
LINE
8
PANEL
10
32821.00
20
1128.00
30
0.0
11
32252.00
21
1128.00
31
0.0
0
LINE
8
PANEL
10
32252.00
20
1128.00
30
0.0
11
32252.00
21
1008.00
31
0.0
0
TEXT
8
LABEL
10
32260.00
20
1060.00
30
0.0
40
16.0
1
Front-L-E1 Front-L · Drawer 1 box side 2 569x120
0
LINE
8
DADO
10
32264.00
20
1008.00
30
0.0
11
32270.00
21
1008.00
31
0.0
0
LINE
8
DADO
10
32270.00
20
1008.00
30
0.0
11
32270.00
21
1128.00
31
0.0
0
LINE
8
DADO
10
32270.00
20
1128.00
30
0.0
11
32264.00
21
1128.00
31
0.0
0
LINE
8
DADO
10
32264.00
20
1128.00
30
0.0
11
32264.00
21
1008.00
31
0.0
0
LINE
8
PANEL
10
32824.00
20
1008.00
30
0.0
11
33434.60
21
1008.00
31
0.0
0
LINE
8
PANEL
10
33434.60
20
1008.00
30
0.0
11
33434.60
21
1128.00
31
0.0
0
LINE
8
PANEL
10
33434.60
20
1128.00
30
0.0
11
32824.00
21
1128.00
31
0.0
0
LINE
8
PANEL
10
32824.00
20
1128.00
30
0.0
11
32824.00
21
1008.00
31
0.0
0
TEXT
8
LABEL
10
32832.00
20
1060.00
30
0.0
40
16.0
1
Front-L-E2 Front-L · Drawer 1 box front/back 1 611x120
0
LINE
8
PANEL
10
33437.60
20
1008.00
30
0.0
11
34048.20
21
1008.00
31
0.0
0
LINE
8
PANEL
10
34048.20
20
1008.00
30
0.0
11
34048.20
21
1128.00
31
0.0
0
LINE
8
PANEL
10
34048.20
20
1128.00
30
0.0
11
33437.60
21
1128.00
31
0.0
0
LINE
8
PANEL
10
33437.60
20
1128.00
30
0.0
11
33437.60
21
1008.00
31
0.0
0
TEXT
8
LABEL
10
33445.60
20
1060.00
30
0.0
40
16.0
1
Front-L-E2 Front-L · Drawer 1 box front/back 2 611x120
0
LINE
8
SHEET
10
34320.00
20
0.00
30
0.0
11
36760.00
21
0.00
31
0.0
0
LINE
8
SHEET
10
36760.00
20
0.00
30
0.0
11
36760.00
21
1220.00
31
0.0
0
LINE
8
SHEET
10
36760.00
20
1220.00
30
0.0
11
34320.00
21
1220.00
31
0.0
0
LINE
8
SHEET
10
34320.00
20
1220.00
30
0.0
11
34320.00
21
0.00
31
0.0
0
TEXT
8
SHEET
10
34325.00
20
1250.00
30
0.0
40
40.0
1
Sheet 14
0
LINE
8
PANEL
10
34320.00
20
0.00
30
0.0
11
34889.00
21
0.00
31
0.0
0
LINE
8
PANEL
10
34889.00
20
0.00
30
0.0
11
34889.00
21
110.00
31
0.0
0
LINE
8
PANEL
10
34889.00
20
110.00
30
0.0
11
34320.00
21
110.00
31
0.0
0
LINE
8
PANEL
10
34320.00
20
110.00
30
0.0
11
34320.00
21
0.00
31
0.0
0
TEXT
8
LABEL
10
34328.00
20
47.00
30
0.0
40
16.0
1
Front-R-E1 Front-R · Drawer 1 box side 1 569x110
0
LINE
8
DADO
10
34332.00
20
0.00
30
0.0
11
34338.00
21
0.00
31
0.0
0
LINE
8
DADO
10
34338.00
20
0.00
30
0.0
11
34338.00
21
110.00
31
0.0
0
LINE
8
DADO
10
34338.00
20
110.00
30
0.0
11
34332.00
21
110.00
31
0.0
0
LINE
8
DADO
10
34332.00
20
110.00
30
0.0
11
34332.00
21
0.00
31
0.0
0
LINE
8
PANEL
10
34892.00
20
0.00
30
0.0
11
35461.00
21
0.00
31
0.0
0
LINE
8
PANEL
10
35461.00
20
0.00
30
0.0
11
35461.00
21
110.00
31
0.0
0
LINE
8
PANEL
10
35461.00
20
110.00
30
0.0
11
34892.00
21
110.00
31
0.0
0
LINE
8
PANEL
10
34892.00
20
110.00
30
0.0
11
34892.00
21
0.00
31
0.0
0
TEXT
8
LABEL
10
34900.00
20
47.00
30
0.0
40
16.0
1
Front-R-E1 Front-R · Drawer 1 box side 2 569x110
0
LINE
8
DADO
10
34904.00
20
0.00
30
0.0
11
34910.00
21
0.00
31
0.0
0
LINE
8
DADO
10
34910.00
20
0.00
30
0.0
11
34910.00
21
110.00
31
0.0
0
LINE
8
DADO
10
34910.00
20
110.00
30
0.0
11
34904.00
21
110.00
31
0.0
0
LINE
8
DADO
10
34904.00
20
110.00
30
0.0
11
34904.00
21
0.00
31
0.0
0
LINE
8
PANEL
10
35464.00
20
0.00
30
0.0
11
36074.60
21
0.00
31
0.0
0
LINE
8
PANEL
10
36074.60
20
0.00
30
0.0
11
36074.60
21
110.00
31
0.0
0
LINE
8
PANEL
10
36074.60
20
110.00
30
0.0
11
35464.00
21
110.00
31
0.0
0
LINE
8
PANEL
10
35464.00
20
110.00
30
0.0
11
35464.00
21
0.00
31
0.0
0
TEXT
8
LABEL
10
35472.00
20
47.00
30
0.0
40
16.0
1
Front-R-E2 Front-R · Drawer 1 box front/back 1 611x110
0
LINE
8
PANEL
10
36077.60
20
0.00
30
0.0
11
36688.20
21
0.00
31
0.0
0
LINE
8
PANEL
10
36688.20
20
0.00
30
0.0
11
36688.20
21
110.00
31
0.0
0
LINE
8
PANEL
10
36688.20
20
110.00
30
0.0
11
36077.60
21
110.00
31
0.0
0
LINE
8
PANEL
10
36077.60
20
110.00
30
0.0
11
36077.60
21
0.00
31
0.0
0
TEXT
8
LABEL
10
36085.60
20
47.00
30
0.0
40
16.0
1
Front-R-E2 Front-R · Drawer 1 box front/back 2 611x110
0
LINE
8
PANEL
10
34320.00
20
113.00
30
0.0
11
34889.00
21
113.00
31
0.0
0
LINE
8
PANEL
10
34889.00
20
113.00
30
0.0
11
34889.00
21
223.00
31
0.0
0
LINE
8
PANEL
10
34889.00
20
223.00
30
0.0
11
34320.00
21
223.00
31
0.0
0
LINE
8
PANEL
10
34320.00
20
223.00
30
0.0
11
34320.00
21
113.00
31
0.0
0
TEXT
8
LABEL
10
34328.00
20
160.00
30
0.0
40
16.0
1
Back-M-E1 Back-M · Drawer 1 box side 1 569x110
0
LINE
8
DADO
10
34332.00
20
113.00
30
0.0
11
34338.00
21
113.00
31
0.0
0
LINE
8
DADO
10
34338.00
20
113.00
30
0.0
11
34338.00
21
223.00
31
0.0
0
LINE
8
DADO
10
34338.00
20
223.00
30
0.0
11
34332.00
21
223.00
31
0.0
0
LINE
8
DADO
10
34332.00
20
223.00
30
0.0
11
34332.00
21
113.00
31
0.0
0
LINE
8
PANEL
10
34892.00
20
113.00
30
0.0
11
35461.00
21
113.00
31
0.0
0
LINE
8
PANEL
10
35461.00
20
113.00
30
0.0
11
35461.00
21
223.00
31
0.0
0
LINE
8
PANEL
10
35461.00
20
223.00
30
0.0
11
34892.00
21
223.00
31
0.0
0
LINE
8
PANEL
10
34892.00
20
223.00
30
0.0
11
34892.00
21
113.00
31
0.0
0
TEXT
8
LABEL
10
34900.00
20
160.00
30
0.0
40
16.0
1
Back-M-E1 Back-M · Drawer 1 box side 2 569x110
0
LINE
8
DADO
10
34904.00
20
113.00
30
0.0
11
34910.00
21
113.00
31
0.0
0
LINE
8
DADO
10
34910.00
20
113.00
30
0.0
11
34910.00
21
223.00
31
0.0
0
LINE
8
DADO
10
34910.00
20
223.00
30
0.0
11
34904.00
21
223.00
31
0.0
0
LINE
8
DADO
10
34904.00
20
223.00
30
0.0
11
34904.00
21
113.00
31
0.0
0
LINE
8
PANEL
10
35464.00
20
113.00
30
0.0
11
36023.60
21
113.00
31
0.0
0
LINE
8
PANEL
10
36023.60
20
113.00
30
0.0
11
36023.60
21
223.00
31
0.0
0
LINE
8
PANEL
10
36023.60
20
223.00
30
0.0
11
35464.00
21
223.00
31
0.0
0
LINE
8
PANEL
10
35464.00
20
223.00
30
0.0
11
35464.00
21
113.00
31
0.0
0
TEXT
8
LABEL
10
35472.00
20
160.00
30
0.0
40
16.0
1
Back-M-E2 Back-M · Drawer 1 box front/back 1 560x110
0
LINE
8
PANEL
10
36026.60
20
113.00
30
0.0
11
36586.20
21
113.00
31
0.0
0
LINE
8
PANEL
10
36586.20
20
113.00
30
0.0
11
36586.20
21
223.00
31
0.0
0
LINE
8
PANEL
10
36586.20
20
223.00
30
0.0
11
36026.60
21
223.00
31
0.0
0
LINE
8
PANEL
10
36026.60
20
223.00
30
0.0
11
36026.60
21
113.00
31
0.0
0
TEXT
8
LABEL
10
36034.60
20
160.00
30
0.0
40
16.0
1
Back-M-E2 Back-M · Drawer 1 box front/back 2 560x110
0
LINE
8
PANEL
10
34320.00
20
226.00
30
0.0
11
34944.00
21
226.00
31
0.0
0
LINE
8
PANEL
10
34944.00
20
226.00
30
0.0
11
34944.00
21
306.00
31
0.0
0
LINE
8
PANEL
10
34944.00
20
306.00
30
0.0
11
34320.00
21
306.00
31
0.0
0
LINE
8
PANEL
10
34320.00
20
306.00
30
0.0
11
34320.00
21
226.00
31
0.0
0
TEXT
8
LABEL
10
34328.00
20
258.00
30
0.0
40
16.0
1
Front-L-A3 Front-L · Top stretcher 1 624x80
0
LINE
8
PANEL
10
34947.00
20
226.00
30
0.0
11
35571.00
21
226.00
31
0.0
0
LINE
8
PANEL
10
35571.00
20
226.00
30
0.0
11
35571.00
21
306.00
31
0.0
0
LINE
8
PANEL
10
35571.00
20
306.00
30
0.0
11
34947.00
21
306.00
31
0.0
0
LINE
8
PANEL
10
34947.00
20
306.00
30
0.0
11
34947.00
21
226.00
31
0.0
0
TEXT
8
LABEL
10
34955.00
20
258.00
30
0.0
40
16.0
1
Front-L-A3 Front-L · Top stretcher 2 624x80
0
LINE
8
PANEL
10
35574.00
20
226.00
30
0.0
11
36047.00
21
226.00
31
0.0
0
LINE
8
PANEL
10
36047.00
20
226.00
30
0.0
11
36047.00
21
306.00
31
0.0
0
LINE
8
PANEL
10
36047.00
20
306.00
30
0.0
11
35574.00
21
306.00
31
0.0
0
LINE
8
PANEL
10
35574.00
20
306.00
30
0.0
11
35574.00
21
226.00
31
0.0
0
TEXT
8
LABEL
10
35582.00
20
258.00
30
0.0
40
16.0
1
Front-M-A3 Front-M · Top stretcher 1 473x80
0
LINE
8
PANEL
10
36050.00
20
226.00
30
0.0
11
36523.00
21
226.00
31
0.0
0
LINE
8
PANEL
10
36523.00
20
226.00
30
0.0
11
36523.00
21
306.00
31
0.0
0
LINE
8
PANEL
10
36523.00
20
306.00
30
0.0
11
36050.00
21
306.00
31
0.0
0
LINE
8
PANEL
10
36050.00
20
306.00
30
0.0
11
36050.00
21
226.00
31
0.0
0
TEXT
8
LABEL
10
36058.00
20
258.00
30
0.0
40
16.0
1
Front-M-A3 Front-M · Top stretcher 2 473x80
0
LINE
8
PANEL
10
34320.00
20
309.00
30
0.0
11
34944.00
21
309.00
31
0.0
0
LINE
8
PANEL
10
34944.00
20
309.00
30
0.0
11
34944.00
21
389.00
31
0.0
0
LINE
8
PANEL
10
34944.00
20
389.00
30
0.0
11
34320.00
21
389.00
31
0.0
0
LINE
8
PANEL
10
34320.00
20
389.00
30
0.0
11
34320.00
21
309.00
31
0.0
0
TEXT
8
LABEL
10
34328.00
20
341.00
30
0.0
40
16.0
1
Front-R-A3 Front-R · Top stretcher 1 624x80
0
LINE
8
PANEL
10
34947.00
20
309.00
30
0.0
11
35571.00
21
309.00
31
0.0
0
LINE
8
PANEL
10
35571.00
20
309.00
30
0.0
11
35571.00
21
389.00
31
0.0
0
LINE
8
PANEL
10
35571.00
20
389.00
30
0.0
11
34947.00
21
389.00
31
0.0
0
LINE
8
PANEL
10
34947.00
20
389.00
30
0.0
11
34947.00
21
309.00
31
0.0
0
TEXT
8
LABEL
10
34955.00
20
341.00
30
0.0
40
16.0
1
Front-R-A3 Front-R · Top stretcher 2 624x80
0
LINE
8
PANEL
10
35574.00
20
309.00
30
0.0
11
36148.00
21
309.00
31
0.0
0
LINE
8
PANEL
10
36148.00
20
309.00
30
0.0
11
36148.00
21
389.00
31
0.0
0
LINE
8
PANEL
10
36148.00
20
389.00
30
0.0
11
35574.00
21
389.00
31
0.0
0
LINE
8
PANEL
10
35574.00
20
389.00
30
0.0
11
35574.00
21
309.00
31
0.0
0
TEXT
8
LABEL
10
35582.00
20
341.00
30
0.0
40
16.0
1
Back-R-A3 Back-R · Top stretcher 1 574x80
0
LINE
8
PANEL
10
36151.00
20
309.00
30
0.0
11
36725.00
21
309.00
31
0.0
0
LINE
8
PANEL
10
36725.00
20
309.00
30
0.0
11
36725.00
21
389.00
31
0.0
0
LINE
8
PANEL
10
36725.00
20
389.00
30
0.0
11
36151.00
21
389.00
31
0.0
0
LINE
8
PANEL
10
36151.00
20
389.00
30
0.0
11
36151.00
21
309.00
31
0.0
0
TEXT
8
LABEL
10
36159.00
20
341.00
30
0.0
40
16.0
1
Back-R-A3 Back-R · Top stretcher 2 574x80
0
LINE
8
PANEL
10
34320.00
20
392.00
30
0.0
11
34893.00
21
392.00
31
0.0
0
LINE
8
PANEL
10
34893.00
20
392.00
30
0.0
11
34893.00
21
472.00
31
0.0
0
LINE
8
PANEL
10
34893.00
20
472.00
30
0.0
11
34320.00
21
472.00
31
0.0
0
LINE
8
PANEL
10
34320.00
20
472.00
30
0.0
11
34320.00
21
392.00
31
0.0
0
TEXT
8
LABEL
10
34328.00
20
424.00
30
0.0
40
16.0
1
Back-M-A3 Back-M · Top stretcher 1 573x80
0
LINE
8
PANEL
10
34896.00
20
392.00
30
0.0
11
35469.00
21
392.00
31
0.0
0
LINE
8
PANEL
10
35469.00
20
392.00
30
0.0
11
35469.00
21
472.00
31
0.0
0
LINE
8
PANEL
10
35469.00
20
472.00
30
0.0
11
34896.00
21
472.00
31
0.0
0
LINE
8
PANEL
10
34896.00
20
472.00
30
0.0
11
34896.00
21
392.00
31
0.0
0
TEXT
8
LABEL
10
34904.00
20
424.00
30
0.0
40
16.0
1
Back-M-A3 Back-M · Top stretcher 2 573x80
0
LINE
8
PANEL
10
35472.00
20
392.00
30
0.0
11
36046.00
21
392.00
31
0.0
0
LINE
8
PANEL
10
36046.00
20
392.00
30
0.0
11
36046.00
21
472.00
31
0.0
0
LINE
8
PANEL
10
36046.00
20
472.00
30
0.0
11
35472.00
21
472.00
31
0.0
0
LINE
8
PANEL
10
35472.00
20
472.00
30
0.0
11
35472.00
21
392.00
31
0.0
0
TEXT
8
LABEL
10
35480.00
20
424.00
30
0.0
40
16.0
1
Back-L-A3 Back-L · Top stretcher 1 574x80
0
LINE
8
PANEL
10
36049.00
20
392.00
30
0.0
11
36623.00
21
392.00
31
0.0
0
LINE
8
PANEL
10
36623.00
20
392.00
30
0.0
11
36623.00
21
472.00
31
0.0
0
LINE
8
PANEL
10
36623.00
20
472.00
30
0.0
11
36049.00
21
472.00
31
0.0
0
LINE
8
PANEL
10
36049.00
20
472.00
30
0.0
11
36049.00
21
392.00
31
0.0
0
TEXT
8
LABEL
10
36057.00
20
424.00
30
0.0
40
16.0
1
Back-L-A3 Back-L · Top stretcher 2 574x80
0
LINE
8
PANEL
10
34320.00
20
475.00
30
0.0
11
34889.00
21
475.00
31
0.0
0
LINE
8
PANEL
10
34889.00
20
475.00
30
0.0
11
34889.00
21
505.00
31
0.0
0
LINE
8
PANEL
10
34889.00
20
505.00
30
0.0
11
34320.00
21
505.00
31
0.0
0
LINE
8
PANEL
10
34320.00
20
505.00
30
0.0
11
34320.00
21
475.00
31
0.0
0
TEXT
8
LABEL
10
34328.00
20
482.00
30
0.0
40
16.0
1
Front-L-A4 Front-L · Drawer 1 wood runner 1 569x30
0
LINE
8
PANEL
10
34892.00
20
475.00
30
0.0
11
35461.00
21
475.00
31
0.0
0
LINE
8
PANEL
10
35461.00
20
475.00
30
0.0
11
35461.00
21
505.00
31
0.0
0
LINE
8
PANEL
10
35461.00
20
505.00
30
0.0
11
34892.00
21
505.00
31
0.0
0
LINE
8
PANEL
10
34892.00
20
505.00
30
0.0
11
34892.00
21
475.00
31
0.0
0
TEXT
8
LABEL
10
34900.00
20
482.00
30
0.0
40
16.0
1
Front-L-A4 Front-L · Drawer 1 wood runner 2 569x30
0
LINE
8
PANEL
10
35464.00
20
475.00
30
0.0
11
36033.00
21
475.00
31
0.0
0
LINE
8
PANEL
10
36033.00
20
475.00
30
0.0
11
36033.00
21
505.00
31
0.0
0
LINE
8
PANEL
10
36033.00
20
505.00
30
0.0
11
35464.00
21
505.00
31
0.0
0
LINE
8
PANEL
10
35464.00
20
505.00
30
0.0
11
35464.00
21
475.00
31
0.0
0
TEXT
8
LABEL
10
35472.00
20
482.00
30
0.0
40
16.0
1
Front-L-A5 Front-L · Drawer 2 wood runner 1 569x30
0
LINE
8
PANEL
10
36036.00
20
475.00
30
0.0
11
36605.00
21
475.00
31
0.0
0
LINE
8
PANEL
10
36605.00
20
475.00
30
0.0
11
36605.00
21
505.00
31
0.0
0
LINE
8
PANEL
10
36605.00
20
505.00
30
0.0
11
36036.00
21
505.00
31
0.0
0
LINE
8
PANEL
10
36036.00
20
505.00
30
0.0
11
36036.00
21
475.00
31
0.0
0
TEXT
8
LABEL
10
36044.00
20
482.00
30
0.0
40
16.0
1
Front-L-A5 Front-L · Drawer 2 wood runner 2 569x30
0
LINE
8
PANEL
10
34320.00
20
508.00
30
0.0
11
34889.00
21
508.00
31
0.0
0
LINE
8
PANEL
10
34889.00
20
508.00
30
0.0
11
34889.00
21
538.00
31
0.0
0
LINE
8
PANEL
10
34889.00
20
538.00
30
0.0
11
34320.00
21
538.00
31
0.0
0
LINE
8
PANEL
10
34320.00
20
538.00
30
0.0
11
34320.00
21
508.00
31
0.0
0
TEXT
8
LABEL
10
34328.00
20
515.00
30
0.0
40
16.0
1
Front-L-A6 Front-L · Drawer 3 wood runner 1 569x30
0
LINE
8
PANEL
10
34892.00
20
508.00
30
0.0
11
35461.00
21
508.00
31
0.0
0
LINE
8
PANEL
10
35461.00
20
508.00
30
0.0
11
35461.00
21
538.00
31
0.0
0
LINE
8
PANEL
10
35461.00
20
538.00
30
0.0
11
34892.00
21
538.00
31
0.0
0
LINE
8
PANEL
10
34892.00
20
538.00
30
0.0
11
34892.00
21
508.00
31
0.0
0
TEXT
8
LABEL
10
34900.00
20
515.00
30
0.0
40
16.0
1
Front-L-A6 Front-L · Drawer 3 wood runner 2 569x30
0
LINE
8
PANEL
10
35464.00
20
508.00
30
0.0
11
36033.00
21
508.00
31
0.0
0
LINE
8
PANEL
10
36033.00
20
508.00
30
0.0
11
36033.00
21
538.00
31
0.0
0
LINE
8
PANEL
10
36033.00
20
538.00
30
0.0
11
35464.00
21
538.00
31
0.0
0
LINE
8
PANEL
10
35464.00
20
538.00
30
0.0
11
35464.00
21
508.00
31
0.0
0
TEXT
8
LABEL
10
35472.00
20
515.00
30
0.0
40
16.0
1
Front-M-A4 Front-M · Drawer 1 wood runner 1 569x30
0
LINE
8
PANEL
10
36036.00
20
508.00
30
0.0
11
36605.00
21
508.00
31
0.0
0
LINE
8
PANEL
10
36605.00
20
508.00
30
0.0
11
36605.00
21
538.00
31
0.0
0
LINE
8
PANEL
10
36605.00
20
538.00
30
0.0
11
36036.00
21
538.00
31
0.0
0
LINE
8
PANEL
10
36036.00
20
538.00
30
0.0
11
36036.00
21
508.00
31
0.0
0
TEXT
8
LABEL
10
36044.00
20
515.00
30
0.0
40
16.0
1
Front-M-A4 Front-M · Drawer 1 wood runner 2 569x30
0
LINE
8
PANEL
10
34320.00
20
541.00
30
0.0
11
34889.00
21
541.00
31
0.0
0
LINE
8
PANEL
10
34889.00
20
541.00
30
0.0
11
34889.00
21
571.00
31
0.0
0
LINE
8
PANEL
10
34889.00
20
571.00
30
0.0
11
34320.00
21
571.00
31
0.0
0
LINE
8
PANEL
10
34320.00
20
571.00
30
0.0
11
34320.00
21
541.00
31
0.0
0
TEXT
8
LABEL
10
34328.00
20
548.00
30
0.0
40
16.0
1
Front-M-A5 Front-M · Drawer 2 wood runner 1 569x30
0
LINE
8
PANEL
10
34892.00
20
541.00
30
0.0
11
35461.00
21
541.00
31
0.0
0
LINE
8
PANEL
10
35461.00
20
541.00
30
0.0
11
35461.00
21
571.00
31
0.0
0
LINE
8
PANEL
10
35461.00
20
571.00
30
0.0
11
34892.00
21
571.00
31
0.0
0
LINE
8
PANEL
10
34892.00
20
571.00
30
0.0
11
34892.00
21
541.00
31
0.0
0
TEXT
8
LABEL
10
34900.00
20
548.00
30
0.0
40
16.0
1
Front-M-A5 Front-M · Drawer 2 wood runner 2 569x30
0
LINE
8
PANEL
10
35464.00
20
541.00
30
0.0
11
36033.00
21
541.00
31
0.0
0
LINE
8
PANEL
10
36033.00
20
541.00
30
0.0
11
36033.00
21
571.00
31
0.0
0
LINE
8
PANEL
10
36033.00
20
571.00
30
0.0
11
35464.00
21
571.00
31
0.0
0
LINE
8
PANEL
10
35464.00
20
571.00
30
0.0
11
35464.00
21
541.00
31
0.0
0
TEXT
8
LABEL
10
35472.00
20
548.00
30
0.0
40
16.0
1
Front-M-A6 Front-M · Drawer 3 wood runner 1 569x30
0
LINE
8
PANEL
10
36036.00
20
541.00
30
0.0
11
36605.00
21
541.00
31
0.0
0
LINE
8
PANEL
10
36605.00
20
541.00
30
0.0
11
36605.00
21
571.00
31
0.0
0
LINE
8
PANEL
10
36605.00
20
571.00
30
0.0
11
36036.00
21
571.00
31
0.0
0
LINE
8
PANEL
10
36036.00
20
571.00
30
0.0
11
36036.00
21
541.00
31
0.0
0
TEXT
8
LABEL
10
36044.00
20
548.00
30
0.0
40
16.0
1
Front-M-A6 Front-M · Drawer 3 wood runner 2 569x30
0
LINE
8
PANEL
10
34320.00
20
574.00
30
0.0
11
34889.00
21
574.00
31
0.0
0
LINE
8
PANEL
10
34889.00
20
574.00
30
0.0
11
34889.00
21
604.00
31
0.0
0
LINE
8
PANEL
10
34889.00
20
604.00
30
0.0
11
34320.00
21
604.00
31
0.0
0
LINE
8
PANEL
10
34320.00
20
604.00
30
0.0
11
34320.00
21
574.00
31
0.0
0
TEXT
8
LABEL
10
34328.00
20
581.00
30
0.0
40
16.0
1
Front-R-A4 Front-R · Drawer 1 wood runner 1 569x30
0
LINE
8
PANEL
10
34892.00
20
574.00
30
0.0
11
35461.00
21
574.00
31
0.0
0
LINE
8
PANEL
10
35461.00
20
574.00
30
0.0
11
35461.00
21
604.00
31
0.0
0
LINE
8
PANEL
10
35461.00
20
604.00
30
0.0
11
34892.00
21
604.00
31
0.0
0
LINE
8
PANEL
10
34892.00
20
604.00
30
0.0
11
34892.00
21
574.00
31
0.0
0
TEXT
8
LABEL
10
34900.00
20
581.00
30
0.0
40
16.0
1
Front-R-A4 Front-R · Drawer 1 wood runner 2 569x30
0
LINE
8
PANEL
10
35464.00
20
574.00
30
0.0
11
36033.00
21
574.00
31
0.0
0
LINE
8
PANEL
10
36033.00
20
574.00
30
0.0
11
36033.00
21
604.00
31
0.0
0
LINE
8
PANEL
10
36033.00
20
604.00
30
0.0
11
35464.00
21
604.00
31
0.0
0
LINE
8
PANEL
10
35464.00
20
604.00
30
0.0
11
35464.00
21
574.00
31
0.0
0
TEXT
8
LABEL
10
35472.00
20
581.00
30
0.0
40
16.0
1
Front-R-A5 Front-R · Drawer 2 wood runner 1 569x30
0
LINE
8
PANEL
10
36036.00
20
574.00
30
0.0
11
36605.00
21
574.00
31
0.0
0
LINE
8
PANEL
10
36605.00
20
574.00
30
0.0
11
36605.00
21
604.00
31
0.0
0
LINE
8
PANEL
10
36605.00
20
604.00
30
0.0
11
36036.00
21
604.00
31
0.0
0
LINE
8
PANEL
10
36036.00
20
604.00
30
0.0
11
36036.00
21
574.00
31
0.0
0
TEXT
8
LABEL
10
36044.00
20
581.00
30
0.0
40
16.0
1
Front-R-A5 Front-R · Drawer 2 wood runner 2 569x30
0
LINE
8
PANEL
10
34320.00
20
607.00
30
0.0
11
34889.00
21
607.00
31
0.0
0
LINE
8
PANEL
10
34889.00
20
607.00
30
0.0
11
34889.00
21
637.00
31
0.0
0
LINE
8
PANEL
10
34889.00
20
637.00
30
0.0
11
34320.00
21
637.00
31
0.0
0
LINE
8
PANEL
10
34320.00
20
637.00
30
0.0
11
34320.00
21
607.00
31
0.0
0
TEXT
8
LABEL
10
34328.00
20
614.00
30
0.0
40
16.0
1
Front-R-A6 Front-R · Drawer 3 wood runner 1 569x30
0
LINE
8
PANEL
10
34892.00
20
607.00
30
0.0
11
35461.00
21
607.00
31
0.0
0
LINE
8
PANEL
10
35461.00
20
607.00
30
0.0
11
35461.00
21
637.00
31
0.0
0
LINE
8
PANEL
10
35461.00
20
637.00
30
0.0
11
34892.00
21
637.00
31
0.0
0
LINE
8
PANEL
10
34892.00
20
637.00
30
0.0
11
34892.00
21
607.00
31
0.0
0
TEXT
8
LABEL
10
34900.00
20
614.00
30
0.0
40
16.0
1
Front-R-A6 Front-R · Drawer 3 wood runner 2 569x30
0
LINE
8
PANEL
10
35464.00
20
607.00
30
0.0
11
36033.00
21
607.00
31
0.0
0
LINE
8
PANEL
10
36033.00
20
607.00
30
0.0
11
36033.00
21
637.00
31
0.0
0
LINE
8
PANEL
10
36033.00
20
637.00
30
0.0
11
35464.00
21
637.00
31
0.0
0
LINE
8
PANEL
10
35464.00
20
637.00
30
0.0
11
35464.00
21
607.00
31
0.0
0
TEXT
8
LABEL
10
35472.00
20
614.00
30
0.0
40
16.0
1
Back-R-A4 Back-R · Drawer 1 wood runner 1 569x30
0
LINE
8
PANEL
10
36036.00
20
607.00
30
0.0
11
36605.00
21
607.00
31
0.0
0
LINE
8
PANEL
10
36605.00
20
607.00
30
0.0
11
36605.00
21
637.00
31
0.0
0
LINE
8
PANEL
10
36605.00
20
637.00
30
0.0
11
36036.00
21
637.00
31
0.0
0
LINE
8
PANEL
10
36036.00
20
637.00
30
0.0
11
36036.00
21
607.00
31
0.0
0
TEXT
8
LABEL
10
36044.00
20
614.00
30
0.0
40
16.0
1
Back-R-A4 Back-R · Drawer 1 wood runner 2 569x30
0
LINE
8
PANEL
10
34320.00
20
640.00
30
0.0
11
34889.00
21
640.00
31
0.0
0
LINE
8
PANEL
10
34889.00
20
640.00
30
0.0
11
34889.00
21
670.00
31
0.0
0
LINE
8
PANEL
10
34889.00
20
670.00
30
0.0
11
34320.00
21
670.00
31
0.0
0
LINE
8
PANEL
10
34320.00
20
670.00
30
0.0
11
34320.00
21
640.00
31
0.0
0
TEXT
8
LABEL
10
34328.00
20
647.00
30
0.0
40
16.0
1
Back-R-A5 Back-R · Drawer 2 wood runner 1 569x30
0
LINE
8
PANEL
10
34892.00
20
640.00
30
0.0
11
35461.00
21
640.00
31
0.0
0
LINE
8
PANEL
10
35461.00
20
640.00
30
0.0
11
35461.00
21
670.00
31
0.0
0
LINE
8
PANEL
10
35461.00
20
670.00
30
0.0
11
34892.00
21
670.00
31
0.0
0
LINE
8
PANEL
10
34892.00
20
670.00
30
0.0
11
34892.00
21
640.00
31
0.0
0
TEXT
8
LABEL
10
34900.00
20
647.00
30
0.0
40
16.0
1
Back-R-A5 Back-R · Drawer 2 wood runner 2 569x30
0
LINE
8
PANEL
10
35464.00
20
640.00
30
0.0
11
36033.00
21
640.00
31
0.0
0
LINE
8
PANEL
10
36033.00
20
640.00
30
0.0
11
36033.00
21
670.00
31
0.0
0
LINE
8
PANEL
10
36033.00
20
670.00
30
0.0
11
35464.00
21
670.00
31
0.0
0
LINE
8
PANEL
10
35464.00
20
670.00
30
0.0
11
35464.00
21
640.00
31
0.0
0
TEXT
8
LABEL
10
35472.00
20
647.00
30
0.0
40
16.0
1
Back-R-A6 Back-R · Drawer 3 wood runner 1 569x30
0
LINE
8
PANEL
10
36036.00
20
640.00
30
0.0
11
36605.00
21
640.00
31
0.0
0
LINE
8
PANEL
10
36605.00
20
640.00
30
0.0
11
36605.00
21
670.00
31
0.0
0
LINE
8
PANEL
10
36605.00
20
670.00
30
0.0
11
36036.00
21
670.00
31
0.0
0
LINE
8
PANEL
10
36036.00
20
670.00
30
0.0
11
36036.00
21
640.00
31
0.0
0
TEXT
8
LABEL
10
36044.00
20
647.00
30
0.0
40
16.0
1
Back-R-A6 Back-R · Drawer 3 wood runner 2 569x30
0
LINE
8
PANEL
10
34320.00
20
673.00
30
0.0
11
34889.00
21
673.00
31
0.0
0
LINE
8
PANEL
10
34889.00
20
673.00
30
0.0
11
34889.00
21
703.00
31
0.0
0
LINE
8
PANEL
10
34889.00
20
703.00
30
0.0
11
34320.00
21
703.00
31
0.0
0
LINE
8
PANEL
10
34320.00
20
703.00
30
0.0
11
34320.00
21
673.00
31
0.0
0
TEXT
8
LABEL
10
34328.00
20
680.00
30
0.0
40
16.0
1
Back-M-A4 Back-M · Drawer 1 wood runner 1 569x30
0
LINE
8
PANEL
10
34892.00
20
673.00
30
0.0
11
35461.00
21
673.00
31
0.0
0
LINE
8
PANEL
10
35461.00
20
673.00
30
0.0
11
35461.00
21
703.00
31
0.0
0
LINE
8
PANEL
10
35461.00
20
703.00
30
0.0
11
34892.00
21
703.00
31
0.0
0
LINE
8
PANEL
10
34892.00
20
703.00
30
0.0
11
34892.00
21
673.00
31
0.0
0
TEXT
8
LABEL
10
34900.00
20
680.00
30
0.0
40
16.0
1
Back-M-A4 Back-M · Drawer 1 wood runner 2 569x30
0
LINE
8
PANEL
10
35464.00
20
673.00
30
0.0
11
36033.00
21
673.00
31
0.0
0
LINE
8
PANEL
10
36033.00
20
673.00
30
0.0
11
36033.00
21
703.00
31
0.0
0
LINE
8
PANEL
10
36033.00
20
703.00
30
0.0
11
35464.00
21
703.00
31
0.0
0
LINE
8
PANEL
10
35464.00
20
703.00
30
0.0
11
35464.00
21
673.00
31
0.0
0
TEXT
8
LABEL
10
35472.00
20
680.00
30
0.0
40
16.0
1
Back-M-A5 Back-M · Drawer 2 wood runner 1 569x30
0
LINE
8
PANEL
10
36036.00
20
673.00
30
0.0
11
36605.00
21
673.00
31
0.0
0
LINE
8
PANEL
10
36605.00
20
673.00
30
0.0
11
36605.00
21
703.00
31
0.0
0
LINE
8
PANEL
10
36605.00
20
703.00
30
0.0
11
36036.00
21
703.00
31
0.0
0
LINE
8
PANEL
10
36036.00
20
703.00
30
0.0
11
36036.00
21
673.00
31
0.0
0
TEXT
8
LABEL
10
36044.00
20
680.00
30
0.0
40
16.0
1
Back-M-A5 Back-M · Drawer 2 wood runner 2 569x30
0
LINE
8
PANEL
10
34320.00
20
706.00
30
0.0
11
34889.00
21
706.00
31
0.0
0
LINE
8
PANEL
10
34889.00
20
706.00
30
0.0
11
34889.00
21
736.00
31
0.0
0
LINE
8
PANEL
10
34889.00
20
736.00
30
0.0
11
34320.00
21
736.00
31
0.0
0
LINE
8
PANEL
10
34320.00
20
736.00
30
0.0
11
34320.00
21
706.00
31
0.0
0
TEXT
8
LABEL
10
34328.00
20
713.00
30
0.0
40
16.0
1
Back-M-A6 Back-M · Drawer 3 wood runner 1 569x30
0
LINE
8
PANEL
10
34892.00
20
706.00
30
0.0
11
35461.00
21
706.00
31
0.0
0
LINE
8
PANEL
10
35461.00
20
706.00
30
0.0
11
35461.00
21
736.00
31
0.0
0
LINE
8
PANEL
10
35461.00
20
736.00
30
0.0
11
34892.00
21
736.00
31
0.0
0
LINE
8
PANEL
10
34892.00
20
736.00
30
0.0
11
34892.00
21
706.00
31
0.0
0
TEXT
8
LABEL
10
34900.00
20
713.00
30
0.0
40
16.0
1
Back-M-A6 Back-M · Drawer 3 wood runner 2 569x30
0
LINE
8
PANEL
10
35464.00
20
706.00
30
0.0
11
36033.00
21
706.00
31
0.0
0
LINE
8
PANEL
10
36033.00
20
706.00
30
0.0
11
36033.00
21
736.00
31
0.0
0
LINE
8
PANEL
10
36033.00
20
736.00
30
0.0
11
35464.00
21
736.00
31
0.0
0
LINE
8
PANEL
10
35464.00
20
736.00
30
0.0
11
35464.00
21
706.00
31
0.0
0
TEXT
8
LABEL
10
35472.00
20
713.00
30
0.0
40
16.0
1
Back-L-A4 Back-L · Drawer 1 wood runner 1 569x30
0
LINE
8
PANEL
10
36036.00
20
706.00
30
0.0
11
36605.00
21
706.00
31
0.0
0
LINE
8
PANEL
10
36605.00
20
706.00
30
0.0
11
36605.00
21
736.00
31
0.0
0
LINE
8
PANEL
10
36605.00
20
736.00
30
0.0
11
36036.00
21
736.00
31
0.0
0
LINE
8
PANEL
10
36036.00
20
736.00
30
0.0
11
36036.00
21
706.00
31
0.0
0
TEXT
8
LABEL
10
36044.00
20
713.00
30
0.0
40
16.0
1
Back-L-A4 Back-L · Drawer 1 wood runner 2 569x30
0
LINE
8
PANEL
10
34320.00
20
739.00
30
0.0
11
34889.00
21
739.00
31
0.0
0
LINE
8
PANEL
10
34889.00
20
739.00
30
0.0
11
34889.00
21
769.00
31
0.0
0
LINE
8
PANEL
10
34889.00
20
769.00
30
0.0
11
34320.00
21
769.00
31
0.0
0
LINE
8
PANEL
10
34320.00
20
769.00
30
0.0
11
34320.00
21
739.00
31
0.0
0
TEXT
8
LABEL
10
34328.00
20
746.00
30
0.0
40
16.0
1
Back-L-A5 Back-L · Drawer 2 wood runner 1 569x30
0
LINE
8
PANEL
10
34892.00
20
739.00
30
0.0
11
35461.00
21
739.00
31
0.0
0
LINE
8
PANEL
10
35461.00
20
739.00
30
0.0
11
35461.00
21
769.00
31
0.0
0
LINE
8
PANEL
10
35461.00
20
769.00
30
0.0
11
34892.00
21
769.00
31
0.0
0
LINE
8
PANEL
10
34892.00
20
769.00
30
0.0
11
34892.00
21
739.00
31
0.0
0
TEXT
8
LABEL
10
34900.00
20
746.00
30
0.0
40
16.0
1
Back-L-A5 Back-L · Drawer 2 wood runner 2 569x30
0
LINE
8
PANEL
10
35464.00
20
739.00
30
0.0
11
36033.00
21
739.00
31
0.0
0
LINE
8
PANEL
10
36033.00
20
739.00
30
0.0
11
36033.00
21
769.00
31
0.0
0
LINE
8
PANEL
10
36033.00
20
769.00
30
0.0
11
35464.00
21
769.00
31
0.0
0
LINE
8
PANEL
10
35464.00
20
769.00
30
0.0
11
35464.00
21
739.00
31
0.0
0
TEXT
8
LABEL
10
35472.00
20
746.00
30
0.0
40
16.0
1
Back-L-A6 Back-L · Drawer 3 wood runner 1 569x30
0
LINE
8
PANEL
10
36036.00
20
739.00
30
0.0
11
36605.00
21
739.00
31
0.0
0
LINE
8
PANEL
10
36605.00
20
739.00
30
0.0
11
36605.00
21
769.00
31
0.0
0
LINE
8
PANEL
10
36605.00
20
769.00
30
0.0
11
36036.00
21
769.00
31
0.0
0
LINE
8
PANEL
10
36036.00
20
769.00
30
0.0
11
36036.00
21
739.00
31
0.0
0
TEXT
8
LABEL
10
36044.00
20
746.00
30
0.0
40
16.0
1
Back-L-A6 Back-L · Drawer 3 wood runner 2 569x30
0
ENDSEC
0
EOF
